<?xml version="1.0" ?><!--
Copyright (C) 2009/2010/2011 Ulrich Apel.
This work is distributed under the conditions of the Creative Commons
Attribution-Share Alike 3.0 Licence. This means you are free:
* to Share - to copy, distribute and transmit the work
* to Remix - to adapt the work

Under the following conditions:
* Attribution. You must attribute the work by stating your use of KanjiVG in
  your own copyright header and linking to KanjiVG's website
  (http://kanjivg.tagaini.net)
* Share Alike. If you alter, transform, or build upon this work, you may
  distribute the resulting work only under the same or similar license to this
  one.

See http://creativecommons.org/licenses/by-sa/3.0/ for more details.
--><!DOCTYPE svg  PUBLIC '-//W3C//DTD SVG 1.0//EN'  'http://www.w3.org/TR/2001/REC-SVG-20010904/DTD/svg10.dtd' [
<!ATTLIST g
xmlns:kvg CDATA #FIXED "http://kanjivg.tagaini.net"
kvg:element CDATA #IMPLIED
kvg:variant CDATA #IMPLIED
kvg:partial CDATA #IMPLIED
kvg:original CDATA #IMPLIED
kvg:part CDATA #IMPLIED
kvg:number CDATA #IMPLIED
kvg:tradForm CDATA #IMPLIED
kvg:radicalForm CDATA #IMPLIED
kvg:position CDATA #IMPLIED
kvg:radical CDATA #IMPLIED
kvg:phon CDATA #IMPLIED >
<!ATTLIST path
xmlns:kvg CDATA #FIXED "http://kanjivg.tagaini.net"
kvg:type CDATA #IMPLIED >
]><svg xmlns="http://www.w3.org/2000/svg" viewBox="0 0 109 109" id="aid052d5">
<g stroke="#8080a0" stroke-width="0.5" opacity="0.7"><line x1="0" y1="0" x2="109" y2="0"/><line x1="109" y1="0" x2="109" y2="109"/><line x1="0" y1="109" x2="109" y2="109"/><line x1="0" y1="0" x2="0" y2="109"/><line x1="0" y1="54.5" x2="109" y2="54.5"/><line x1="54.5" y1="0" x2="54.5" y2="109"/></g><g fill="none" stroke-linecap="round" stroke-linejoin="round" stroke="#808080" opacity="0.5" stroke-width="3">
<g kvg:element="動">
	<g kvg:element="重">
		<g kvg:element="千" kvg:part="1">
			<g kvg:element="丿">
				<path d="M46.84,14.89c-0.21,1.11-1.28,2.1-1.91,2.45c-4.12,2.27-14.32,5.75-28.35,8.92"/>
			</g>
			<g kvg:element="十" kvg:part="1">
				<path d="M11.97,34.81c1.95,0.28,3.83,0.15,5.77-0.11c7.72-1.04,21.63-3.11,29.88-4.06c1.98-0.23,4.37-0.4,6.15-0.1"/>
			</g>
		</g>
		<g kvg:element="里">
			<path d="M15.16,44.9c0.72,0.72,1.26,1.49,1.42,2.3c1.12,5.65,2.11,10.33,3.43,16.52c0.21,0.98,0.43,2,0.66,3.07"/>
			<path d="M16.91,45.8c9.66-1.45,22.22-3.28,30.49-4.35c3.47-0.45,5.45,1.69,5.09,3.84c-0.74,4.46-1.76,9.87-2.82,14.38c-0.22,0.94-0.43,1.79-0.61,2.51"/>
			<path d="M19.3,54.39c6.07-0.89,26.77-3.02,31.02-3.4"/>
			<path d="M21.3,64.09c8.7-1.46,17.33-2.59,27.27-3.21"/>
			<g kvg:element="千" kvg:part="2">
				<g kvg:element="十" kvg:part="2">
					<path d="M32.96,24.91c1,1,1.58,2.34,1.58,3.54c0,3.44,0.07,51.55,0.07,57.64"/>
				</g>
			</g>
			<path d="M19.57,76.63c1.55,0.37,3.1,0.2,4.32,0.06c8.11-0.94,14.86-2.19,20.62-3.53c1.88-0.44,3.62-0.53,4.74-0.4"/>
			<path d="M14.55,91.36c1.08,1.01,2.41,1.52,5.51,0.53C29.12,89,33.75,88,47.47,83.53"/>
		</g>
	</g>
	<g kvg:element="力">
		<path d="M59.67,43.15c1.46,0.6,3.31,0.59,5.27,0.36c8.82-1.01,19.68-3.07,25.05-4.28c3.77-0.85,6.06,1.02,5.78,4.15C94.38,59,90.5,78.12,83.67,90.85c-2.67,4.97-6.05,3.02-9.25-0.67"/>
		<path d="M76.39,18.43c1.22,1.22,1.48,2.58,1.37,5C76.88,42.5,70.38,75.5,54.14,90.27"/>
	</g>
</g>
</g>
<g fill="none" stroke-linecap="round" stroke-linejoin="round" stroke="#c04080" stroke-width="2">
<g kvg:element="動">
	<g kvg:element="重">
		<g kvg:element="千" kvg:part="1">
			<g kvg:element="丿">
				<path d="M46.84,14.89c-0.21,1.11-1.28,2.1-1.91,2.45c-4.12,2.27-14.32,5.75-28.35,8.92" stroke-dasharray="32.9854" stroke-dashoffset="32.9854"><animate attributeName="opacity" values="0;0;1;1" keyTimes="0;0.0198;0.0198;1" dur="10.0826s" begin="0s;aid052d5.click" fill="freeze" repeatCount="indefinite"/><animate attributeName="stroke-dashoffset" values="32.9854;32.9854;0;0" keyTimes="0;0.0198;0.0659;1" dur="10.0826s" begin="0s;aid052d5.click" fill="freeze" repeatCount="indefinite"/></path>
			</g>
			<g kvg:element="十" kvg:part="1">
				<path d="M11.97,34.81c1.95,0.28,3.83,0.15,5.77-0.11c7.72-1.04,21.63-3.11,29.88-4.06c1.98-0.23,4.37-0.4,6.15-0.1" stroke-dasharray="42.1245" stroke-dashoffset="42.1245"><animate attributeName="opacity" values="0;0;1;1" keyTimes="0;0.0858;0.0858;1" dur="10.0826s" begin="0s;aid052d5.click" fill="freeze" repeatCount="indefinite"/><animate attributeName="stroke-dashoffset" values="42.1245;42.1245;0;0" keyTimes="0;0.0858;0.1364;1" dur="10.0826s" begin="0s;aid052d5.click" fill="freeze" repeatCount="indefinite"/></path>
			</g>
		</g>
		<g kvg:element="里">
			<path d="M15.16,44.9c0.72,0.72,1.26,1.49,1.42,2.3c1.12,5.65,2.11,10.33,3.43,16.52c0.21,0.98,0.43,2,0.66,3.07" stroke-dasharray="22.7645" stroke-dashoffset="22.7645"><animate attributeName="opacity" values="0;0;1;1" keyTimes="0;0.1563;0.1563;1" dur="10.0826s" begin="0s;aid052d5.click" fill="freeze" repeatCount="indefinite"/><animate attributeName="stroke-dashoffset" values="22.7645;22.7645;0;0" keyTimes="0;0.1563;0.1973;1" dur="10.0826s" begin="0s;aid052d5.click" fill="freeze" repeatCount="indefinite"/></path>
			<path d="M16.91,45.8c9.66-1.45,22.22-3.28,30.49-4.35c3.47-0.45,5.45,1.69,5.09,3.84c-0.74,4.46-1.76,9.87-2.82,14.38c-0.22,0.94-0.43,1.79-0.61,2.51" stroke-dasharray="55.5065" stroke-dashoffset="55.5065"><animate attributeName="opacity" values="0;0;1;1" keyTimes="0;0.2171;0.2171;1" dur="10.0826s" begin="0s;aid052d5.click" fill="freeze" repeatCount="indefinite"/><animate attributeName="stroke-dashoffset" values="55.5065;55.5065;0;0" keyTimes="0;0.2171;0.2744;1" dur="10.0826s" begin="0s;aid052d5.click" fill="freeze" repeatCount="indefinite"/></path>
			<path d="M19.3,54.39c6.07-0.89,26.77-3.02,31.02-3.4" stroke-dasharray="31.2174" stroke-dashoffset="31.2174"><animate attributeName="opacity" values="0;0;1;1" keyTimes="0;0.2943;0.2943;1" dur="10.0826s" begin="0s;aid052d5.click" fill="freeze" repeatCount="indefinite"/><animate attributeName="stroke-dashoffset" values="31.2174;31.2174;0;0" keyTimes="0;0.2943;0.3395;1" dur="10.0826s" begin="0s;aid052d5.click" fill="freeze" repeatCount="indefinite"/></path>
			<path d="M21.3,64.09c8.7-1.46,17.33-2.59,27.27-3.21" stroke-dasharray="27.4813" stroke-dashoffset="27.4813"><animate attributeName="opacity" values="0;0;1;1" keyTimes="0;0.3593;0.3593;1" dur="10.0826s" begin="0s;aid052d5.click" fill="freeze" repeatCount="indefinite"/><animate attributeName="stroke-dashoffset" values="27.4813;27.4813;0;0" keyTimes="0;0.3593;0.4027;1" dur="10.0826s" begin="0s;aid052d5.click" fill="freeze" repeatCount="indefinite"/></path>
			<g kvg:element="千" kvg:part="2">
				<g kvg:element="十" kvg:part="2">
					<path d="M32.96,24.91c1,1,1.58,2.34,1.58,3.54c0,3.44,0.07,51.55,0.07,57.64" stroke-dasharray="61.6230" stroke-dashoffset="61.6230"><animate attributeName="opacity" values="0;0;1;1" keyTimes="0;0.4225;0.4225;1" dur="10.0826s" begin="0s;aid052d5.click" fill="freeze" repeatCount="indefinite"/><animate attributeName="stroke-dashoffset" values="61.6230;61.6230;0;0" keyTimes="0;0.4225;0.4829;1" dur="10.0826s" begin="0s;aid052d5.click" fill="freeze" repeatCount="indefinite"/></path>
				</g>
			</g>
			<path d="M19.57,76.63c1.55,0.37,3.1,0.2,4.32,0.06c8.11-0.94,14.86-2.19,20.62-3.53c1.88-0.44,3.62-0.53,4.74-0.4" stroke-dasharray="30.0631" stroke-dashoffset="30.0631"><animate attributeName="opacity" values="0;0;1;1" keyTimes="0;0.5027;0.5027;1" dur="10.0826s" begin="0s;aid052d5.click" fill="freeze" repeatCount="indefinite"/><animate attributeName="stroke-dashoffset" values="30.0631;30.0631;0;0" keyTimes="0;0.5027;0.5474;1" dur="10.0826s" begin="0s;aid052d5.click" fill="freeze" repeatCount="indefinite"/></path>
			<path d="M14.55,91.36c1.08,1.01,2.41,1.52,5.51,0.53C29.12,89,33.75,88,47.47,83.53" stroke-dasharray="34.5217" stroke-dashoffset="34.5217"><animate attributeName="opacity" values="0;0;1;1" keyTimes="0;0.5672;0.5672;1" dur="10.0826s" begin="0s;aid052d5.click" fill="freeze" repeatCount="indefinite"/><animate attributeName="stroke-dashoffset" values="34.5217;34.5217;0;0" keyTimes="0;0.5672;0.6141;1" dur="10.0826s" begin="0s;aid052d5.click" fill="freeze" repeatCount="indefinite"/></path>
		</g>
	</g>
	<g kvg:element="力">
		<path d="M59.67,43.15c1.46,0.6,3.31,0.59,5.27,0.36c8.82-1.01,19.68-3.07,25.05-4.28c3.77-0.85,6.06,1.02,5.78,4.15C94.38,59,90.5,78.12,83.67,90.85c-2.67,4.97-6.05,3.02-9.25-0.67" stroke-dasharray="100.4642" stroke-dashoffset="100.4642"><animate attributeName="opacity" values="0;0;1;1" keyTimes="0;0.6339;0.6339;1" dur="10.0826s" begin="0s;aid052d5.click" fill="freeze" repeatCount="indefinite"/><animate attributeName="stroke-dashoffset" values="100.4642;100.4642;0;0" keyTimes="0;0.6339;0.7135;1" dur="10.0826s" begin="0s;aid052d5.click" fill="freeze" repeatCount="indefinite"/></path>
		<path d="M76.39,18.43c1.22,1.22,1.48,2.58,1.37,5C76.88,42.5,70.38,75.5,54.14,90.27" stroke-dasharray="77.7663" stroke-dashoffset="77.7663"><animate attributeName="opacity" values="0;0;1;1" keyTimes="0;0.7333;0.7333;1" dur="10.0826s" begin="0s;aid052d5.click" fill="freeze" repeatCount="indefinite"/><animate attributeName="stroke-dashoffset" values="77.7663;77.7663;0;0" keyTimes="0;0.7333;0.8016;1" dur="10.0826s" begin="0s;aid052d5.click" fill="freeze" repeatCount="indefinite"/></path>
	</g>
</g>
</g><g font-size="8" fill="#808080">
	<text transform="matrix(1 0 0 1 38.50 14.50)">1<animate attributeName="opacity" values="0.2;0.2;1.0;1.0" keyTimes="0;0.0000;0.0000;1" dur="10.0826s" begin="0s;aid052d5.click" fill="freeze" repeatCount="indefinite"/></text>
	<text transform="matrix(1 0 0 1 4.50 36.13)">2<animate attributeName="opacity" values="0.2;0.2;1.0;1.0" keyTimes="0;0.0659;0.0659;1" dur="10.0826s" begin="0s;aid052d5.click" fill="freeze" repeatCount="indefinite"/></text>
	<text transform="matrix(1 0 0 1 9.50 52.50)">3<animate attributeName="opacity" values="0.2;0.2;1.0;1.0" keyTimes="0;0.1364;0.1364;1" dur="10.0826s" begin="0s;aid052d5.click" fill="freeze" repeatCount="indefinite"/></text>
	<text transform="matrix(1 0 0 1 16.75 43.63)">4<animate attributeName="opacity" values="0.2;0.2;1.0;1.0" keyTimes="0;0.1973;0.1973;1" dur="10.0826s" begin="0s;aid052d5.click" fill="freeze" repeatCount="indefinite"/></text>
	<text transform="matrix(1 0 0 1 22.50 51.50)">5<animate attributeName="opacity" values="0.2;0.2;1.0;1.0" keyTimes="0;0.2744;0.2744;1" dur="10.0826s" begin="0s;aid052d5.click" fill="freeze" repeatCount="indefinite"/></text>
	<text transform="matrix(1 0 0 1 22.75 61.50)">6<animate attributeName="opacity" values="0.2;0.2;1.0;1.0" keyTimes="0;0.3395;0.3395;1" dur="10.0826s" begin="0s;aid052d5.click" fill="freeze" repeatCount="indefinite"/></text>
	<text transform="matrix(1 0 0 1 27.50 31.50)">7<animate attributeName="opacity" values="0.2;0.2;1.0;1.0" keyTimes="0;0.4027;0.4027;1" dur="10.0826s" begin="0s;aid052d5.click" fill="freeze" repeatCount="indefinite"/></text>
	<text transform="matrix(1 0 0 1 12.50 79.50)">8<animate attributeName="opacity" values="0.2;0.2;1.0;1.0" keyTimes="0;0.4829;0.4829;1" dur="10.0826s" begin="0s;aid052d5.click" fill="freeze" repeatCount="indefinite"/></text>
	<text transform="matrix(1 0 0 1 7.50 97.50)">9<animate attributeName="opacity" values="0.2;0.2;1.0;1.0" keyTimes="0;0.5474;0.5474;1" dur="10.0826s" begin="0s;aid052d5.click" fill="freeze" repeatCount="indefinite"/></text>
	<text transform="matrix(1 0 0 1 57.50 40.50)">10<animate attributeName="opacity" values="0.2;0.2;1.0;1.0" keyTimes="0;0.6141;0.6141;1" dur="10.0826s" begin="0s;aid052d5.click" fill="freeze" repeatCount="indefinite"/></text>
	<text transform="matrix(1 0 0 1 65.50 18.50)">11<animate attributeName="opacity" values="0.2;0.2;1.0;1.0" keyTimes="0;0.7135;0.7135;1" dur="10.0826s" begin="0s;aid052d5.click" fill="freeze" repeatCount="indefinite"/></text>
</g>
</svg>