<?xml version="1.0" ?><!--
Copyright (C) 2009/2010/2011 Ulrich Apel.
This work is distributed under the conditions of the Creative Commons
Attribution-Share Alike 3.0 Licence. This means you are free:
* to Share - to copy, distribute and transmit the work
* to Remix - to adapt the work

Under the following conditions:
* Attribution. You must attribute the work by stating your use of KanjiVG in
  your own copyright header and linking to KanjiVG's website
  (http://kanjivg.tagaini.net)
* Share Alike. If you alter, transform, or build upon this work, you may
  distribute the resulting work only under the same or similar license to this
  one.

See http://creativecommons.org/licenses/by-sa/3.0/ for more details.
--><!DOCTYPE svg  PUBLIC '-//W3C//DTD SVG 1.0//EN'  'http://www.w3.org/TR/2001/REC-SVG-20010904/DTD/svg10.dtd' [
<!ATTLIST g
xmlns:kvg CDATA #FIXED "http://kanjivg.tagaini.net"
kvg:element CDATA #IMPLIED
kvg:variant CDATA #IMPLIED
kvg:partial CDATA #IMPLIED
kvg:original CDATA #IMPLIED
kvg:part CDATA #IMPLIED
kvg:number CDATA #IMPLIED
kvg:tradForm CDATA #IMPLIED
kvg:radicalForm CDATA #IMPLIED
kvg:position CDATA #IMPLIED
kvg:radical CDATA #IMPLIED
kvg:phon CDATA #IMPLIED >
<!ATTLIST path
xmlns:kvg CDATA #FIXED "http://kanjivg.tagaini.net"
kvg:type CDATA #IMPLIED >
]><svg xmlns="http://www.w3.org/2000/svg" viewBox="0 0 109 109" id="aid06240">
<g stroke="#8080a0" stroke-width="0.5" opacity="0.7"><line x1="0" y1="0" x2="109" y2="0"/><line x1="109" y1="0" x2="109" y2="109"/><line x1="0" y1="109" x2="109" y2="109"/><line x1="0" y1="0" x2="0" y2="109"/><line x1="0" y1="54.5" x2="109" y2="54.5"/><line x1="54.5" y1="0" x2="54.5" y2="109"/></g><g fill="none" stroke-linecap="round" stroke-linejoin="round" stroke="#808080" opacity="0.5" stroke-width="3">
<g kvg:element="所">
	<g kvg:element="戸">
		<path d="M16.17,23.74c1.21,0.38,2.82,0.41,4.38,0.27c7.08-0.64,18.2-2.51,24.54-3.61c1.92-0.33,3.53-0.66,5.41-0.49"/>
		<path d="M18,40.62c1.25,0.5,2.7,0.45,3.86,0.29c7.62-1.03,16.15-2.68,20.88-3.26c2.26-0.28,3.64,1.6,3.4,3.11c-0.71,4.48-2.07,8.18-3.22,15.72"/>
		<path d="M21.47,59.99c5.64-0.64,13.18-1.84,20.53-2.69c1.16-0.13,2.38-0.18,3.49-0.12"/>
		<path d="M19.86,41.4c0.68,0.68,0.93,1.6,0.93,2.73c0,22.5-0.54,34.37-7.04,44.12"/>
	</g>
	<g kvg:element="斤">
		<path d="M79.5,11.88c-0.13,1.38-0.51,2.68-1.56,3.67C73.88,19.38,68.5,24,59.62,28.75"/>
		<path d="M56.44,30.38c1.15,1.15,1.47,2.63,1.56,4.65c1.12,25.22-2.51,40.22-10.76,48.22"/>
		<path d="M59.77,42.69c2.35,0.06,4.31-0.34,5.97-0.63c7.51-1.31,16.88-2.56,27.37-4.46c1.65-0.3,3.96-0.46,5.02-0.25"/>
		<path d="M77.1,43.3c0.93,0.93,1.65,2.94,1.65,4.26c0,2.43,0.05,31.26,0.06,45.94c0,2.33,0,4.3,0,5.75"/>
	</g>
</g>
</g>
<g fill="none" stroke-linecap="round" stroke-linejoin="round" stroke="#c04080" stroke-width="2">
<g kvg:element="所">
	<g kvg:element="戸">
		<path d="M16.17,23.74c1.21,0.38,2.82,0.41,4.38,0.27c7.08-0.64,18.2-2.51,24.54-3.61c1.92-0.33,3.53-0.66,5.41-0.49" stroke-dasharray="34.6842" stroke-dashoffset="34.6842"><animate attributeName="opacity" values="0;0;1;1" keyTimes="0;0.0261;0.0261;1" dur="7.6567s" begin="0s;aid06240.click" fill="freeze" repeatCount="indefinite"/><animate attributeName="stroke-dashoffset" values="34.6842;34.6842;0;0" keyTimes="0;0.0261;0.0880;1" dur="7.6567s" begin="0s;aid06240.click" fill="freeze" repeatCount="indefinite"/></path>
		<path d="M18,40.62c1.25,0.5,2.7,0.45,3.86,0.29c7.62-1.03,16.15-2.68,20.88-3.26c2.26-0.28,3.64,1.6,3.4,3.11c-0.71,4.48-2.07,8.18-3.22,15.72" stroke-dasharray="46.4330" stroke-dashoffset="46.4330"><animate attributeName="opacity" values="0;0;1;1" keyTimes="0;0.1141;0.1141;1" dur="7.6567s" begin="0s;aid06240.click" fill="freeze" repeatCount="indefinite"/><animate attributeName="stroke-dashoffset" values="46.4330;46.4330;0;0" keyTimes="0;0.1141;0.1836;1" dur="7.6567s" begin="0s;aid06240.click" fill="freeze" repeatCount="indefinite"/></path>
		<path d="M21.47,59.99c5.64-0.64,13.18-1.84,20.53-2.69c1.16-0.13,2.38-0.18,3.49-0.12" stroke-dasharray="24.2119" stroke-dashoffset="24.2119"><animate attributeName="opacity" values="0;0;1;1" keyTimes="0;0.2097;0.2097;1" dur="7.6567s" begin="0s;aid06240.click" fill="freeze" repeatCount="indefinite"/><animate attributeName="stroke-dashoffset" values="24.2119;24.2119;0;0" keyTimes="0;0.2097;0.2647;1" dur="7.6567s" begin="0s;aid06240.click" fill="freeze" repeatCount="indefinite"/></path>
		<path d="M19.86,41.4c0.68,0.68,0.93,1.6,0.93,2.73c0,22.5-0.54,34.37-7.04,44.12" stroke-dasharray="48.2998" stroke-dashoffset="48.2998"><animate attributeName="opacity" values="0;0;1;1" keyTimes="0;0.2908;0.2908;1" dur="7.6567s" begin="0s;aid06240.click" fill="freeze" repeatCount="indefinite"/><animate attributeName="stroke-dashoffset" values="48.2998;48.2998;0;0" keyTimes="0;0.2908;0.3615;1" dur="7.6567s" begin="0s;aid06240.click" fill="freeze" repeatCount="indefinite"/></path>
	</g>
	<g kvg:element="斤">
		<path d="M79.5,11.88c-0.13,1.38-0.51,2.68-1.56,3.67C73.88,19.38,68.5,24,59.62,28.75" stroke-dasharray="26.7441" stroke-dashoffset="26.7441"><animate attributeName="opacity" values="0;0;1;1" keyTimes="0;0.3877;0.3877;1" dur="7.6567s" begin="0s;aid06240.click" fill="freeze" repeatCount="indefinite"/><animate attributeName="stroke-dashoffset" values="26.7441;26.7441;0;0" keyTimes="0;0.3877;0.4443;1" dur="7.6567s" begin="0s;aid06240.click" fill="freeze" repeatCount="indefinite"/></path>
		<path d="M56.44,30.38c1.15,1.15,1.47,2.63,1.56,4.65c1.12,25.22-2.51,40.22-10.76,48.22" stroke-dasharray="55.7972" stroke-dashoffset="55.7972"><animate attributeName="opacity" values="0;0;1;1" keyTimes="0;0.4704;0.4704;1" dur="7.6567s" begin="0s;aid06240.click" fill="freeze" repeatCount="indefinite"/><animate attributeName="stroke-dashoffset" values="55.7972;55.7972;0;0" keyTimes="0;0.4704;0.5460;1" dur="7.6567s" begin="0s;aid06240.click" fill="freeze" repeatCount="indefinite"/></path>
		<path d="M59.77,42.69c2.35,0.06,4.31-0.34,5.97-0.63c7.51-1.31,16.88-2.56,27.37-4.46c1.65-0.3,3.96-0.46,5.02-0.25" stroke-dasharray="38.8026" stroke-dashoffset="38.8026"><animate attributeName="opacity" values="0;0;1;1" keyTimes="0;0.5722;0.5722;1" dur="7.6567s" begin="0s;aid06240.click" fill="freeze" repeatCount="indefinite"/><animate attributeName="stroke-dashoffset" values="38.8026;38.8026;0;0" keyTimes="0;0.5722;0.6367;1" dur="7.6567s" begin="0s;aid06240.click" fill="freeze" repeatCount="indefinite"/></path>
		<path d="M77.1,43.3c0.93,0.93,1.65,2.94,1.65,4.26c0,2.43,0.05,31.26,0.06,45.94c0,2.33,0,4.3,0,5.75" stroke-dasharray="56.3580" stroke-dashoffset="56.3580"><animate attributeName="opacity" values="0;0;1;1" keyTimes="0;0.6628;0.6628;1" dur="7.6567s" begin="0s;aid06240.click" fill="freeze" repeatCount="indefinite"/><animate attributeName="stroke-dashoffset" values="56.3580;56.3580;0;0" keyTimes="0;0.6628;0.7388;1" dur="7.6567s" begin="0s;aid06240.click" fill="freeze" repeatCount="indefinite"/></path>
	</g>
</g>
</g><g font-size="8" fill="#808080">
	<text transform="matrix(1 0 0 1 10.50 25.63)">1<animate attributeName="opacity" values="0.2;0.2;1.0;1.0" keyTimes="0;0.0000;0.0000;1" dur="7.6567s" begin="0s;aid06240.click" fill="freeze" repeatCount="indefinite"/></text>
	<text transform="matrix(1 0 0 1 20.50 37.50)">2<animate attributeName="opacity" values="0.2;0.2;1.0;1.0" keyTimes="0;0.0880;0.0880;1" dur="7.6567s" begin="0s;aid06240.click" fill="freeze" repeatCount="indefinite"/></text>
	<text transform="matrix(1 0 0 1 25.50 56.50)">3<animate attributeName="opacity" values="0.2;0.2;1.0;1.0" keyTimes="0;0.1836;0.1836;1" dur="7.6567s" begin="0s;aid06240.click" fill="freeze" repeatCount="indefinite"/></text>
	<text transform="matrix(1 0 0 1 12.75 48.13)">4<animate attributeName="opacity" values="0.2;0.2;1.0;1.0" keyTimes="0;0.2647;0.2647;1" dur="7.6567s" begin="0s;aid06240.click" fill="freeze" repeatCount="indefinite"/></text>
	<text transform="matrix(1 0 0 1 70.50 12.50)">5<animate attributeName="opacity" values="0.2;0.2;1.0;1.0" keyTimes="0;0.3615;0.3615;1" dur="7.6567s" begin="0s;aid06240.click" fill="freeze" repeatCount="indefinite"/></text>
	<text transform="matrix(1 0 0 1 50.50 38.50)">6<animate attributeName="opacity" values="0.2;0.2;1.0;1.0" keyTimes="0;0.4443;0.4443;1" dur="7.6567s" begin="0s;aid06240.click" fill="freeze" repeatCount="indefinite"/></text>
	<text transform="matrix(1 0 0 1 63.50 39.50)">7<animate attributeName="opacity" values="0.2;0.2;1.0;1.0" keyTimes="0;0.5460;0.5460;1" dur="7.6567s" begin="0s;aid06240.click" fill="freeze" repeatCount="indefinite"/></text>
	<text transform="matrix(1 0 0 1 70.50 51.50)">8<animate attributeName="opacity" values="0.2;0.2;1.0;1.0" keyTimes="0;0.6367;0.6367;1" dur="7.6567s" begin="0s;aid06240.click" fill="freeze" repeatCount="indefinite"/></text>
</g>
</svg>