<?xml version="1.0" ?><!--
Copyright (C) 2009/2010/2011 Ulrich Apel.
This work is distributed under the conditions of the Creative Commons
Attribution-Share Alike 3.0 Licence. This means you are free:
* to Share - to copy, distribute and transmit the work
* to Remix - to adapt the work

Under the following conditions:
* Attribution. You must attribute the work by stating your use of KanjiVG in
  your own copyright header and linking to KanjiVG's website
  (http://kanjivg.tagaini.net)
* Share Alike. If you alter, transform, or build upon this work, you may
  distribute the resulting work only under the same or similar license to this
  one.

See http://creativecommons.org/licenses/by-sa/3.0/ for more details.
--><!DOCTYPE svg  PUBLIC '-//W3C//DTD SVG 1.0//EN'  'http://www.w3.org/TR/2001/REC-SVG-20010904/DTD/svg10.dtd' [
<!ATTLIST g
xmlns:kvg CDATA #FIXED "http://kanjivg.tagaini.net"
kvg:element CDATA #IMPLIED
kvg:variant CDATA #IMPLIED
kvg:partial CDATA #IMPLIED
kvg:original CDATA #IMPLIED
kvg:part CDATA #IMPLIED
kvg:number CDATA #IMPLIED
kvg:tradForm CDATA #IMPLIED
kvg:radicalForm CDATA #IMPLIED
kvg:position CDATA #IMPLIED
kvg:radical CDATA #IMPLIED
kvg:phon CDATA #IMPLIED >
<!ATTLIST path
xmlns:kvg CDATA #FIXED "http://kanjivg.tagaini.net"
kvg:type CDATA #IMPLIED >
]><svg xmlns="http://www.w3.org/2000/svg" viewBox="0 0 109 109" id="aid0639b">
<g stroke="#8080a0" stroke-width="0.5" opacity="0.7"><line x1="0" y1="0" x2="109" y2="0"/><line x1="109" y1="0" x2="109" y2="109"/><line x1="0" y1="109" x2="109" y2="109"/><line x1="0" y1="0" x2="0" y2="109"/><line x1="0" y1="54.5" x2="109" y2="54.5"/><line x1="54.5" y1="0" x2="54.5" y2="109"/></g><g fill="none" stroke-linecap="round" stroke-linejoin="round" stroke="#808080" opacity="0.5" stroke-width="3">
<g kvg:element="掛">
	<g kvg:element="扌">
		<path d="M14.5,39.67c2.11,0.25,3.73,0.23,5.89-0.09c4.2-0.64,9.03-1.47,15.38-2.42c0.93-0.14,1.89-0.27,2.9-0.4"/>
		<path d="M28.27,16.25c0.93,0.93,1.51,2.88,1.51,5.02c0,15.23-0.01,52.21-0.01,63.65c0,14.25-6.07,3.53-7.52,2"/>
		<path d="m13.5,67.39c1.62,0.99,2.5,0.99,4.12,-0.51,4.43,-4.09,7.63,-7,18.45,-17.66"/>
	</g>
	<g kvg:element="卦">
		<g kvg:element="圭">
			<g kvg:element="土">
				<path d="M43.96,34.22c1.01,0.5,2.66,0.28,3.67,0.16c7.24-0.88,11.99-1.63,16.38-2.22c1.28-0.17,2.54-0.24,3.78,0.13"/>
				<path d="M54.98,17.25c0.82,0.82,1.11,1.77,1.11,3.33c0,10.02-0.1,13.41-0.1,26.67"/>
				<path d="M41.61,49.48c0.86,0.42,2.44,0.51,3.29,0.42c6.1-0.65,14.05-2.21,23.57-2.76c1.43-0.08,2.29,0.2,3.01,0.41"/>
			</g>
			<g kvg:element="土">
				<path d="M42.91,68.19c1.2,0.65,3.09,0.53,4.34,0.29c6.58-1.27,13.75-2.22,18.51-2.77c1.18-0.14,2.64-0.37,3.77,0"/>
				<path d="M55.59,55c0.77,0.77,1.25,1.94,1.25,3.17c0,9.46-0.09,10.57-0.09,23.08"/>
				<path d="M42.04,86.57c1.08,0.8,2.67,0.65,3.44,0.34c10.7-4.32,15.28-6.22,25.38-10.2"/>
			</g>
		</g>
		<g kvg:element="卜">
			<path d="M77.68,15.05c1.01,1.01,1.73,2.45,1.73,4.34c0,0.59,0.04,52.87,0.05,71.85c0,3.61,0,6.01,0,6.63"/>
			<path d="M82.75,47.25c5.12,3.12,11.62,8.88,14,14.5"/>
		</g>
	</g>
</g>
</g>
<g fill="none" stroke-linecap="round" stroke-linejoin="round" stroke="#c04080" stroke-width="2">
<g kvg:element="掛">
	<g kvg:element="扌">
		<path d="M14.5,39.67c2.11,0.25,3.73,0.23,5.89-0.09c4.2-0.64,9.03-1.47,15.38-2.42c0.93-0.14,1.89-0.27,2.9-0.4" stroke-dasharray="24.4174" stroke-dashoffset="24.4174"><animate attributeName="opacity" values="0;0;1;1" keyTimes="0;0.0209;0.0209;1" dur="9.5611s" begin="0s;aid0639b.click" fill="freeze" repeatCount="indefinite"/><animate attributeName="stroke-dashoffset" values="24.4174;24.4174;0;0" keyTimes="0;0.0209;0.0651;1" dur="9.5611s" begin="0s;aid0639b.click" fill="freeze" repeatCount="indefinite"/></path>
		<path d="M28.27,16.25c0.93,0.93,1.51,2.88,1.51,5.02c0,15.23-0.01,52.21-0.01,63.65c0,14.25-6.07,3.53-7.52,2" stroke-dasharray="84.8795" stroke-dashoffset="84.8795"><animate attributeName="opacity" values="0;0;1;1" keyTimes="0;0.0860;0.0860;1" dur="9.5611s" begin="0s;aid0639b.click" fill="freeze" repeatCount="indefinite"/><animate attributeName="stroke-dashoffset" values="84.8795;84.8795;0;0" keyTimes="0;0.0860;0.1617;1" dur="9.5611s" begin="0s;aid0639b.click" fill="freeze" repeatCount="indefinite"/></path>
		<path d="m13.5,67.39c1.62,0.99,2.5,0.99,4.12,-0.51,4.43,-4.09,7.63,-7,18.45,-17.66" stroke-dasharray="30.1790" stroke-dashoffset="30.1790"><animate attributeName="opacity" values="0;0;1;1" keyTimes="0;0.1827;0.1827;1" dur="9.5611s" begin="0s;aid0639b.click" fill="freeze" repeatCount="indefinite"/><animate attributeName="stroke-dashoffset" values="30.1790;30.1790;0;0" keyTimes="0;0.1827;0.2298;1" dur="9.5611s" begin="0s;aid0639b.click" fill="freeze" repeatCount="indefinite"/></path>
	</g>
	<g kvg:element="卦">
		<g kvg:element="圭">
			<g kvg:element="土">
				<path d="M43.96,34.22c1.01,0.5,2.66,0.28,3.67,0.16c7.24-0.88,11.99-1.63,16.38-2.22c1.28-0.17,2.54-0.24,3.78,0.13" stroke-dasharray="24.0721" stroke-dashoffset="24.0721"><animate attributeName="opacity" values="0;0;1;1" keyTimes="0;0.2507;0.2507;1" dur="9.5611s" begin="0s;aid0639b.click" fill="freeze" repeatCount="indefinite"/><animate attributeName="stroke-dashoffset" values="24.0721;24.0721;0;0" keyTimes="0;0.2507;0.2947;1" dur="9.5611s" begin="0s;aid0639b.click" fill="freeze" repeatCount="indefinite"/></path>
				<path d="M54.98,17.25c0.82,0.82,1.11,1.77,1.11,3.33c0,10.02-0.1,13.41-0.1,26.67" stroke-dasharray="30.2962" stroke-dashoffset="30.2962"><animate attributeName="opacity" values="0;0;1;1" keyTimes="0;0.3156;0.3156;1" dur="9.5611s" begin="0s;aid0639b.click" fill="freeze" repeatCount="indefinite"/><animate attributeName="stroke-dashoffset" values="30.2962;30.2962;0;0" keyTimes="0;0.3156;0.3628;1" dur="9.5611s" begin="0s;aid0639b.click" fill="freeze" repeatCount="indefinite"/></path>
				<path d="M41.61,49.48c0.86,0.42,2.44,0.51,3.29,0.42c6.1-0.65,14.05-2.21,23.57-2.76c1.43-0.08,2.29,0.2,3.01,0.41" stroke-dasharray="30.1533" stroke-dashoffset="30.1533"><animate attributeName="opacity" values="0;0;1;1" keyTimes="0;0.3838;0.3838;1" dur="9.5611s" begin="0s;aid0639b.click" fill="freeze" repeatCount="indefinite"/><animate attributeName="stroke-dashoffset" values="30.1533;30.1533;0;0" keyTimes="0;0.3838;0.4309;1" dur="9.5611s" begin="0s;aid0639b.click" fill="freeze" repeatCount="indefinite"/></path>
			</g>
			<g kvg:element="土">
				<path d="M42.91,68.19c1.2,0.65,3.09,0.53,4.34,0.29c6.58-1.27,13.75-2.22,18.51-2.77c1.18-0.14,2.64-0.37,3.77,0" stroke-dasharray="26.9546" stroke-dashoffset="26.9546"><animate attributeName="opacity" values="0;0;1;1" keyTimes="0;0.4518;0.4518;1" dur="9.5611s" begin="0s;aid0639b.click" fill="freeze" repeatCount="indefinite"/><animate attributeName="stroke-dashoffset" values="26.9546;26.9546;0;0" keyTimes="0;0.4518;0.4973;1" dur="9.5611s" begin="0s;aid0639b.click" fill="freeze" repeatCount="indefinite"/></path>
				<path d="M55.59,55c0.77,0.77,1.25,1.94,1.25,3.17c0,9.46-0.09,10.57-0.09,23.08" stroke-dasharray="26.5841" stroke-dashoffset="26.5841"><animate attributeName="opacity" values="0;0;1;1" keyTimes="0;0.5182;0.5182;1" dur="9.5611s" begin="0s;aid0639b.click" fill="freeze" repeatCount="indefinite"/><animate attributeName="stroke-dashoffset" values="26.5841;26.5841;0;0" keyTimes="0;0.5182;0.5635;1" dur="9.5611s" begin="0s;aid0639b.click" fill="freeze" repeatCount="indefinite"/></path>
				<path d="M42.04,86.57c1.08,0.8,2.67,0.65,3.44,0.34c10.7-4.32,15.28-6.22,25.38-10.2" stroke-dasharray="30.9532" stroke-dashoffset="30.9532"><animate attributeName="opacity" values="0;0;1;1" keyTimes="0;0.5844;0.5844;1" dur="9.5611s" begin="0s;aid0639b.click" fill="freeze" repeatCount="indefinite"/><animate attributeName="stroke-dashoffset" values="30.9532;30.9532;0;0" keyTimes="0;0.5844;0.6320;1" dur="9.5611s" begin="0s;aid0639b.click" fill="freeze" repeatCount="indefinite"/></path>
			</g>
		</g>
		<g kvg:element="卜">
			<path d="M77.68,15.05c1.01,1.01,1.73,2.45,1.73,4.34c0,0.59,0.04,52.87,0.05,71.85c0,3.61,0,6.01,0,6.63" stroke-dasharray="83.2889" stroke-dashoffset="83.2889"><animate attributeName="opacity" values="0;0;1;1" keyTimes="0;0.6529;0.6529;1" dur="9.5611s" begin="0s;aid0639b.click" fill="freeze" repeatCount="indefinite"/><animate attributeName="stroke-dashoffset" values="83.2889;83.2889;0;0" keyTimes="0;0.6529;0.7278;1" dur="9.5611s" begin="0s;aid0639b.click" fill="freeze" repeatCount="indefinite"/></path>
			<path d="M82.75,47.25c5.12,3.12,11.62,8.88,14,14.5" stroke-dasharray="20.4396" stroke-dashoffset="20.4396"><animate attributeName="opacity" values="0;0;1;1" keyTimes="0;0.7488;0.7488;1" dur="9.5611s" begin="0s;aid0639b.click" fill="freeze" repeatCount="indefinite"/><animate attributeName="stroke-dashoffset" values="20.4396;20.4396;0;0" keyTimes="0;0.7488;0.7908;1" dur="9.5611s" begin="0s;aid0639b.click" fill="freeze" repeatCount="indefinite"/></path>
		</g>
	</g>
</g>
</g><g font-size="8" fill="#808080">
	<text transform="matrix(1 0 0 1 8.25 40.63)">1<animate attributeName="opacity" values="0.2;0.2;1.0;1.0" keyTimes="0;0.0000;0.0000;1" dur="9.5611s" begin="0s;aid0639b.click" fill="freeze" repeatCount="indefinite"/></text>
	<text transform="matrix(1 0 0 1 20.25 16.50)">2<animate attributeName="opacity" values="0.2;0.2;1.0;1.0" keyTimes="0;0.0651;0.0651;1" dur="9.5611s" begin="0s;aid0639b.click" fill="freeze" repeatCount="indefinite"/></text>
	<text transform="matrix(1 0 0 1 5.50 71.50)">3<animate attributeName="opacity" values="0.2;0.2;1.0;1.0" keyTimes="0;0.1617;0.1617;1" dur="9.5611s" begin="0s;aid0639b.click" fill="freeze" repeatCount="indefinite"/></text>
	<text transform="matrix(1 0 0 1 42.75 31.63)">4<animate attributeName="opacity" values="0.2;0.2;1.0;1.0" keyTimes="0;0.2298;0.2298;1" dur="9.5611s" begin="0s;aid0639b.click" fill="freeze" repeatCount="indefinite"/></text>
	<text transform="matrix(1 0 0 1 45.75 18.50)">5<animate attributeName="opacity" values="0.2;0.2;1.0;1.0" keyTimes="0;0.2947;0.2947;1" dur="9.5611s" begin="0s;aid0639b.click" fill="freeze" repeatCount="indefinite"/></text>
	<text transform="matrix(1 0 0 1 42.50 46.55)">6<animate attributeName="opacity" values="0.2;0.2;1.0;1.0" keyTimes="0;0.3628;0.3628;1" dur="9.5611s" begin="0s;aid0639b.click" fill="freeze" repeatCount="indefinite"/></text>
	<text transform="matrix(1 0 0 1 36.75 68.98)">7<animate attributeName="opacity" values="0.2;0.2;1.0;1.0" keyTimes="0;0.4309;0.4309;1" dur="9.5611s" begin="0s;aid0639b.click" fill="freeze" repeatCount="indefinite"/></text>
	<text transform="matrix(1 0 0 1 47.25 60.13)">8<animate attributeName="opacity" values="0.2;0.2;1.0;1.0" keyTimes="0;0.4973;0.4973;1" dur="9.5611s" begin="0s;aid0639b.click" fill="freeze" repeatCount="indefinite"/></text>
	<text transform="matrix(1 0 0 1 35.29 93.02)">9<animate attributeName="opacity" values="0.2;0.2;1.0;1.0" keyTimes="0;0.5635;0.5635;1" dur="9.5611s" begin="0s;aid0639b.click" fill="freeze" repeatCount="indefinite"/></text>
	<text transform="matrix(1 0 0 1 67.50 12.50)">10<animate attributeName="opacity" values="0.2;0.2;1.0;1.0" keyTimes="0;0.6320;0.6320;1" dur="9.5611s" begin="0s;aid0639b.click" fill="freeze" repeatCount="indefinite"/></text>
	<text transform="matrix(1 0 0 1 85.50 46.63)">11<animate attributeName="opacity" values="0.2;0.2;1.0;1.0" keyTimes="0;0.7278;0.7278;1" dur="9.5611s" begin="0s;aid0639b.click" fill="freeze" repeatCount="indefinite"/></text>
</g>
</svg>