<?xml version="1.0" ?><!--
Copyright (C) 2009/2010/2011 Ulrich Apel.
This work is distributed under the conditions of the Creative Commons
Attribution-Share Alike 3.0 Licence. This means you are free:
* to Share - to copy, distribute and transmit the work
* to Remix - to adapt the work

Under the following conditions:
* Attribution. You must attribute the work by stating your use of KanjiVG in
  your own copyright header and linking to KanjiVG's website
  (http://kanjivg.tagaini.net)
* Share Alike. If you alter, transform, or build upon this work, you may
  distribute the resulting work only under the same or similar license to this
  one.

See http://creativecommons.org/licenses/by-sa/3.0/ for more details.
--><!DOCTYPE svg  PUBLIC '-//W3C//DTD SVG 1.0//EN'  'http://www.w3.org/TR/2001/REC-SVG-20010904/DTD/svg10.dtd' [
<!ATTLIST g
xmlns:kvg CDATA #FIXED "http://kanjivg.tagaini.net"
kvg:element CDATA #IMPLIED
kvg:variant CDATA #IMPLIED
kvg:partial CDATA #IMPLIED
kvg:original CDATA #IMPLIED
kvg:part CDATA #IMPLIED
kvg:number CDATA #IMPLIED
kvg:tradForm CDATA #IMPLIED
kvg:radicalForm CDATA #IMPLIED
kvg:position CDATA #IMPLIED
kvg:radical CDATA #IMPLIED
kvg:phon CDATA #IMPLIED >
<!ATTLIST path
xmlns:kvg CDATA #FIXED "http://kanjivg.tagaini.net"
kvg:type CDATA #IMPLIED >
]><svg xmlns="http://www.w3.org/2000/svg" viewBox="0 0 109 109" id="aid06bba">
<g stroke="#8080a0" stroke-width="0.5" opacity="0.7"><line x1="0" y1="0" x2="109" y2="0"/><line x1="109" y1="0" x2="109" y2="109"/><line x1="0" y1="109" x2="109" y2="109"/><line x1="0" y1="0" x2="0" y2="109"/><line x1="0" y1="54.5" x2="109" y2="54.5"/><line x1="54.5" y1="0" x2="54.5" y2="109"/></g><g fill="none" stroke-linecap="round" stroke-linejoin="round" stroke="#808080" opacity="0.5" stroke-width="3">
<g kvg:element="殺">
	<g>
		<g kvg:element="乂">
			<g kvg:element="丿">
				<path d="M44.38,15.38c0.36,1.11,0.23,2.04-0.51,3.18C37.2,28.76,29.02,37.47,16.5,44.25"/>
			</g>
			<path d="M21.45,22.72c8.03,0.92,20.88,5.6,27.59,12.5"/>
		</g>
		<g kvg:element="木">
			<path d="M17.28,51.22c2.22,0.66,5.41,0.17,7.24-0.13c5.84-0.94,15.36-2.99,21.51-3.97c1.09-0.17,2.56-0.24,3.24,0"/>
			<path d="M35.77,39c1.37,1.37,1.86,3.5,1.86,5.17c0,0.79-0.08,30.93-0.1,45.58c-0.01,3.07-0.01,5.45-0.01,6.75"/>
			<path d="M36.33,49.78c0,0.97-0.2,2.09-0.53,2.87c-5.88,13.44-9.95,22.03-19.03,31.69"/>
			<path d="M40.75,58.88c2.49,1.56,6.58,6.61,8.68,9.62"/>
		</g>
	</g>
	<g kvg:element="殳">
		<g kvg:element="几">
			<g kvg:element="丿">
				<path d="M61.21,20.34c0.6,0.6,0.97,1.4,0.95,2.47c-0.23,11.07-3.81,23.28-10.25,28.21"/>
			</g>
			<path d="M62.79,22.25c3.09-0.25,11.89-1.83,13.2-2.37c1.95-0.8,3.18,0.95,2.98,2.73c-0.39,3.48-1.08,9.36-1.08,12.84c0,6.68,0.97,8.29,7.4,8.29c6.47,0,7.41-1.66,7.41-8.68"/>
		</g>
		<g kvg:element="又">
			<path d="M58.97,55.5c1.31,0.38,2.72,0.46,5.35-0.12c2.62-0.58,12.39-3.2,14.21-3.72c2.72-0.78,4.35,0.97,3.21,3.73C73.29,75.9,59.25,90.75,46.48,97.17"/>
			<path d="M55.39,63.69c5.49,0.43,18.45,17.09,30.35,25.97c2.36,1.76,4.97,3.78,7.89,4.46"/>
		</g>
	</g>
</g>
</g>
<g fill="none" stroke-linecap="round" stroke-linejoin="round" stroke="#c04080" stroke-width="2">
<g kvg:element="殺">
	<g>
		<g kvg:element="乂">
			<g kvg:element="丿">
				<path d="M44.38,15.38c0.36,1.11,0.23,2.04-0.51,3.18C37.2,28.76,29.02,37.47,16.5,44.25" stroke-dasharray="41.3132" stroke-dashoffset="41.3132"><animate attributeName="opacity" values="0;0;1;1" keyTimes="0;0.0217;0.0217;1" dur="9.1980s" begin="0s;aid06bba.click" fill="freeze" repeatCount="indefinite"/><animate attributeName="stroke-dashoffset" values="41.3132;41.3132;0;0" keyTimes="0;0.0217;0.0768;1" dur="9.1980s" begin="0s;aid06bba.click" fill="freeze" repeatCount="indefinite"/></path>
			</g>
			<path d="M21.45,22.72c8.03,0.92,20.88,5.6,27.59,12.5" stroke-dasharray="30.7769" stroke-dashoffset="30.7769"><animate attributeName="opacity" values="0;0;1;1" keyTimes="0;0.0986;0.0986;1" dur="9.1980s" begin="0s;aid06bba.click" fill="freeze" repeatCount="indefinite"/><animate attributeName="stroke-dashoffset" values="30.7769;30.7769;0;0" keyTimes="0;0.0986;0.1479;1" dur="9.1980s" begin="0s;aid06bba.click" fill="freeze" repeatCount="indefinite"/></path>
		</g>
		<g kvg:element="木">
			<path d="M17.28,51.22c2.22,0.66,5.41,0.17,7.24-0.13c5.84-0.94,15.36-2.99,21.51-3.97c1.09-0.17,2.56-0.24,3.24,0" stroke-dasharray="32.4440" stroke-dashoffset="32.4440"><animate attributeName="opacity" values="0;0;1;1" keyTimes="0;0.1697;0.1697;1" dur="9.1980s" begin="0s;aid06bba.click" fill="freeze" repeatCount="indefinite"/><animate attributeName="stroke-dashoffset" values="32.4440;32.4440;0;0" keyTimes="0;0.1697;0.2199;1" dur="9.1980s" begin="0s;aid06bba.click" fill="freeze" repeatCount="indefinite"/></path>
			<path d="M35.77,39c1.37,1.37,1.86,3.5,1.86,5.17c0,0.79-0.08,30.93-0.1,45.58c-0.01,3.07-0.01,5.45-0.01,6.75" stroke-dasharray="57.9704" stroke-dashoffset="57.9704"><animate attributeName="opacity" values="0;0;1;1" keyTimes="0;0.2416;0.2416;1" dur="9.1980s" begin="0s;aid06bba.click" fill="freeze" repeatCount="indefinite"/><animate attributeName="stroke-dashoffset" values="57.9704;57.9704;0;0" keyTimes="0;0.2416;0.3058;1" dur="9.1980s" begin="0s;aid06bba.click" fill="freeze" repeatCount="indefinite"/></path>
			<path d="M36.33,49.78c0,0.97-0.2,2.09-0.53,2.87c-5.88,13.44-9.95,22.03-19.03,31.69" stroke-dasharray="40.1304" stroke-dashoffset="40.1304"><animate attributeName="opacity" values="0;0;1;1" keyTimes="0;0.3275;0.3275;1" dur="9.1980s" begin="0s;aid06bba.click" fill="freeze" repeatCount="indefinite"/><animate attributeName="stroke-dashoffset" values="40.1304;40.1304;0;0" keyTimes="0;0.3275;0.3819;1" dur="9.1980s" begin="0s;aid06bba.click" fill="freeze" repeatCount="indefinite"/></path>
			<path d="M40.75,58.88c2.49,1.56,6.58,6.61,8.68,9.62" stroke-dasharray="13.0227" stroke-dashoffset="13.0227"><animate attributeName="opacity" values="0;0;1;1" keyTimes="0;0.4037;0.4037;1" dur="9.1980s" begin="0s;aid06bba.click" fill="freeze" repeatCount="indefinite"/><animate attributeName="stroke-dashoffset" values="13.0227;13.0227;0;0" keyTimes="0;0.4037;0.4434;1" dur="9.1980s" begin="0s;aid06bba.click" fill="freeze" repeatCount="indefinite"/></path>
		</g>
	</g>
	<g kvg:element="殳">
		<g kvg:element="几">
			<g kvg:element="丿">
				<path d="M61.21,20.34c0.6,0.6,0.97,1.4,0.95,2.47c-0.23,11.07-3.81,23.28-10.25,28.21" stroke-dasharray="33.5928" stroke-dashoffset="33.5928"><animate attributeName="opacity" values="0;0;1;1" keyTimes="0;0.4651;0.4651;1" dur="9.1980s" begin="0s;aid06bba.click" fill="freeze" repeatCount="indefinite"/><animate attributeName="stroke-dashoffset" values="33.5928;33.5928;0;0" keyTimes="0;0.4651;0.5160;1" dur="9.1980s" begin="0s;aid06bba.click" fill="freeze" repeatCount="indefinite"/></path>
			</g>
			<path d="M62.79,22.25c3.09-0.25,11.89-1.83,13.2-2.37c1.95-0.8,3.18,0.95,2.98,2.73c-0.39,3.48-1.08,9.36-1.08,12.84c0,6.68,0.97,8.29,7.4,8.29c6.47,0,7.41-1.66,7.41-8.68" stroke-dasharray="58.5277" stroke-dashoffset="58.5277"><animate attributeName="opacity" values="0;0;1;1" keyTimes="0;0.5378;0.5378;1" dur="9.1980s" begin="0s;aid06bba.click" fill="freeze" repeatCount="indefinite"/><animate attributeName="stroke-dashoffset" values="58.5277;58.5277;0;0" keyTimes="0;0.5378;0.6022;1" dur="9.1980s" begin="0s;aid06bba.click" fill="freeze" repeatCount="indefinite"/></path>
		</g>
		<g kvg:element="又">
			<path d="M58.97,55.5c1.31,0.38,2.72,0.46,5.35-0.12c2.62-0.58,12.39-3.2,14.21-3.72c2.72-0.78,4.35,0.97,3.21,3.73C73.29,75.9,59.25,90.75,46.48,97.17" stroke-dasharray="82.4988" stroke-dashoffset="82.4988"><animate attributeName="opacity" values="0;0;1;1" keyTimes="0;0.6239;0.6239;1" dur="9.1980s" begin="0s;aid06bba.click" fill="freeze" repeatCount="indefinite"/><animate attributeName="stroke-dashoffset" values="82.4988;82.4988;0;0" keyTimes="0;0.6239;0.7014;1" dur="9.1980s" begin="0s;aid06bba.click" fill="freeze" repeatCount="indefinite"/></path>
			<path d="M55.39,63.69c5.49,0.43,18.45,17.09,30.35,25.97c2.36,1.76,4.97,3.78,7.89,4.46" stroke-dasharray="49.3299" stroke-dashoffset="49.3299"><animate attributeName="opacity" values="0;0;1;1" keyTimes="0;0.7231;0.7231;1" dur="9.1980s" begin="0s;aid06bba.click" fill="freeze" repeatCount="indefinite"/><animate attributeName="stroke-dashoffset" values="49.3299;49.3299;0;0" keyTimes="0;0.7231;0.7826;1" dur="9.1980s" begin="0s;aid06bba.click" fill="freeze" repeatCount="indefinite"/></path>
		</g>
	</g>
</g>
</g><g font-size="8" fill="#808080">
	<text transform="matrix(1 0 0 1 36.50 15.13)">1<animate attributeName="opacity" values="0.2;0.2;1.0;1.0" keyTimes="0;0.0000;0.0000;1" dur="9.1980s" begin="0s;aid06bba.click" fill="freeze" repeatCount="indefinite"/></text>
	<text transform="matrix(1 0 0 1 12.75 24.50)">2<animate attributeName="opacity" values="0.2;0.2;1.0;1.0" keyTimes="0;0.0768;0.0768;1" dur="9.1980s" begin="0s;aid06bba.click" fill="freeze" repeatCount="indefinite"/></text>
	<text transform="matrix(1 0 0 1 9.50 55.50)">3<animate attributeName="opacity" values="0.2;0.2;1.0;1.0" keyTimes="0;0.1479;0.1479;1" dur="9.1980s" begin="0s;aid06bba.click" fill="freeze" repeatCount="indefinite"/></text>
	<text transform="matrix(1 0 0 1 28.50 45.50)">4<animate attributeName="opacity" values="0.2;0.2;1.0;1.0" keyTimes="0;0.2199;0.2199;1" dur="9.1980s" begin="0s;aid06bba.click" fill="freeze" repeatCount="indefinite"/></text>
	<text transform="matrix(1 0 0 1 24.75 61.63)">5<animate attributeName="opacity" values="0.2;0.2;1.0;1.0" keyTimes="0;0.3058;0.3058;1" dur="9.1980s" begin="0s;aid06bba.click" fill="freeze" repeatCount="indefinite"/></text>
	<text transform="matrix(1 0 0 1 41.25 57.50)">6<animate attributeName="opacity" values="0.2;0.2;1.0;1.0" keyTimes="0;0.3819;0.3819;1" dur="9.1980s" begin="0s;aid06bba.click" fill="freeze" repeatCount="indefinite"/></text>
	<text transform="matrix(1 0 0 1 53.50 26.50)">7<animate attributeName="opacity" values="0.2;0.2;1.0;1.0" keyTimes="0;0.4434;0.4434;1" dur="9.1980s" begin="0s;aid06bba.click" fill="freeze" repeatCount="indefinite"/></text>
	<text transform="matrix(1 0 0 1 62.25 18.50)">8<animate attributeName="opacity" values="0.2;0.2;1.0;1.0" keyTimes="0;0.5160;0.5160;1" dur="9.1980s" begin="0s;aid06bba.click" fill="freeze" repeatCount="indefinite"/></text>
	<text transform="matrix(1 0 0 1 60.50 52.63)">9<animate attributeName="opacity" values="0.2;0.2;1.0;1.0" keyTimes="0;0.6022;0.6022;1" dur="9.1980s" begin="0s;aid06bba.click" fill="freeze" repeatCount="indefinite"/></text>
	<text transform="matrix(1 0 0 1 53.50 75.50)">10<animate attributeName="opacity" values="0.2;0.2;1.0;1.0" keyTimes="0;0.7014;0.7014;1" dur="9.1980s" begin="0s;aid06bba.click" fill="freeze" repeatCount="indefinite"/></text>
</g>
</svg>