<?xml version="1.0" ?><!--
Copyright (C) 2009/2010/2011 Ulrich Apel.
This work is distributed under the conditions of the Creative Commons
Attribution-Share Alike 3.0 Licence. This means you are free:
* to Share - to copy, distribute and transmit the work
* to Remix - to adapt the work

Under the following conditions:
* Attribution. You must attribute the work by stating your use of KanjiVG in
  your own copyright header and linking to KanjiVG's website
  (http://kanjivg.tagaini.net)
* Share Alike. If you alter, transform, or build upon this work, you may
  distribute the resulting work only under the same or similar license to this
  one.

See http://creativecommons.org/licenses/by-sa/3.0/ for more details.
--><!DOCTYPE svg  PUBLIC '-//W3C//DTD SVG 1.0//EN'  'http://www.w3.org/TR/2001/REC-SVG-20010904/DTD/svg10.dtd' [
<!ATTLIST g
xmlns:kvg CDATA #FIXED "http://kanjivg.tagaini.net"
kvg:element CDATA #IMPLIED
kvg:variant CDATA #IMPLIED
kvg:partial CDATA #IMPLIED
kvg:original CDATA #IMPLIED
kvg:part CDATA #IMPLIED
kvg:number CDATA #IMPLIED
kvg:tradForm CDATA #IMPLIED
kvg:radicalForm CDATA #IMPLIED
kvg:position CDATA #IMPLIED
kvg:radical CDATA #IMPLIED
kvg:phon CDATA #IMPLIED >
<!ATTLIST path
xmlns:kvg CDATA #FIXED "http://kanjivg.tagaini.net"
kvg:type CDATA #IMPLIED >
]><svg xmlns="http://www.w3.org/2000/svg" viewBox="0 0 109 109" id="aid07d76">
<g stroke="#8080a0" stroke-width="0.5" opacity="0.7"><line x1="0" y1="0" x2="109" y2="0"/><line x1="109" y1="0" x2="109" y2="109"/><line x1="0" y1="109" x2="109" y2="109"/><line x1="0" y1="0" x2="0" y2="109"/><line x1="0" y1="54.5" x2="109" y2="54.5"/><line x1="54.5" y1="0" x2="54.5" y2="109"/></g><g fill="none" stroke-linecap="round" stroke-linejoin="round" stroke="#808080" opacity="0.5" stroke-width="3">
<g kvg:element="絶">
	<g kvg:element="糸">
		<path d="M29.65,13c0.31,1.21,0.49,2.19-0.16,3.44c-3.11,6.06-7.41,12.22-12.32,17.54c-1.05,1.14-1.3,2.14,0.25,2.54c3.37,0.87,7.59,3.24,10.39,5.47"/>
		<path d="M41.42,23.19c0.31,0.59,0.4,2.54,0,3.17c-5.97,9.3-14.54,18.39-23.12,28.05c-1.8,2.02-1.05,3.71,1.19,3.16c5.24-1.29,13.39-3.45,20.72-5.58"/>
		<path d="M37.25,45.5c2.38,2.12,6.15,8.71,6.75,12"/>
		<path d="M29.83,58.01c0.77,0.77,1.28,2.24,1.28,4.28c0,6.45-0.1,19.09-0.1,28.21c0,2.74-0.06,4.75-0.06,5.5"/>
		<path d="M20.75,69c0.12,0.76,0.09,2-0.12,2.55c-1.88,4.95-4.5,9.95-7.13,13.95"/>
		<path d="M39.75,67.5c2.75,3.6,4.86,11.98,5.5,15.25"/>
	</g>
	<g kvg:element="色">
		<g kvg:element="𠂊">
			<path d="M64.65,13.75c0.12,1.52-0.03,2.65-0.63,4.06c-2.87,6.78-10.86,18.2-16.79,24.07"/>
			<path d="M63.32,23.57c5.68-0.32,14.77-1.7,17.24-1.99c2.12-0.25,2.38,1.62,1.5,2.84c-3.72,5.14-8.18,11.08-13.21,18.28"/>
		</g>
		<g kvg:element="巴">
			<g kvg:element="己">
				<path d="M51.6,45.34c1.15,0.41,2.73,0.26,3.9,0.17c11-0.88,23.37-2.38,31.13-3.52c2.42-0.35,3.09,1.81,2.86,3c-0.57,3.06-1.13,8.47-1.97,13.32c-0.26,1.49-0.54,2.93-0.86,4.23"/>
				<path d="M69.34,44.99c0.83,0.83,1.32,2.01,1.32,3.36c0,4.52-0.05,8.15-0.05,13.12"/>
				<path d="M55.1,63.83c3.64-0.34,24.78-2.7,30.34-2.86"/>
				<path d="M52.85,46.09c0.9,0.9,1.32,2.21,1.32,3.6c0,14.31,0.08,23.81,0.08,29.06c0,13.5,2,14.87,21.07,14.87c20.31,0,20.95-2.24,20.95-9.16"/>
			</g>
		</g>
	</g>
</g>
</g>
<g fill="none" stroke-linecap="round" stroke-linejoin="round" stroke="#c04080" stroke-width="2">
<g kvg:element="絶">
	<g kvg:element="糸">
		<path d="M29.65,13c0.31,1.21,0.49,2.19-0.16,3.44c-3.11,6.06-7.41,12.22-12.32,17.54c-1.05,1.14-1.3,2.14,0.25,2.54c3.37,0.87,7.59,3.24,10.39,5.47" stroke-dasharray="40.2691" stroke-dashoffset="40.2691"><animate attributeName="opacity" values="0;0;1;1" keyTimes="0;0.0193;0.0193;1" dur="10.3384s" begin="0s;aid07d76.click" fill="freeze" repeatCount="indefinite"/><animate attributeName="stroke-dashoffset" values="40.2691;40.2691;0;0" keyTimes="0;0.0193;0.0678;1" dur="10.3384s" begin="0s;aid07d76.click" fill="freeze" repeatCount="indefinite"/></path>
		<path d="M41.42,23.19c0.31,0.59,0.4,2.54,0,3.17c-5.97,9.3-14.54,18.39-23.12,28.05c-1.8,2.02-1.05,3.71,1.19,3.16c5.24-1.29,13.39-3.45,20.72-5.58" stroke-dasharray="66.3357" stroke-dashoffset="66.3357"><animate attributeName="opacity" values="0;0;1;1" keyTimes="0;0.0872;0.0872;1" dur="10.3384s" begin="0s;aid07d76.click" fill="freeze" repeatCount="indefinite"/><animate attributeName="stroke-dashoffset" values="66.3357;66.3357;0;0" keyTimes="0;0.0872;0.1483;1" dur="10.3384s" begin="0s;aid07d76.click" fill="freeze" repeatCount="indefinite"/></path>
		<path d="M37.25,45.5c2.38,2.12,6.15,8.71,6.75,12" stroke-dasharray="13.9208" stroke-dashoffset="13.9208"><animate attributeName="opacity" values="0;0;1;1" keyTimes="0;0.1676;0.1676;1" dur="10.3384s" begin="0s;aid07d76.click" fill="freeze" repeatCount="indefinite"/><animate attributeName="stroke-dashoffset" values="13.9208;13.9208;0;0" keyTimes="0;0.1676;0.2034;1" dur="10.3384s" begin="0s;aid07d76.click" fill="freeze" repeatCount="indefinite"/></path>
		<path d="M29.83,58.01c0.77,0.77,1.28,2.24,1.28,4.28c0,6.45-0.1,19.09-0.1,28.21c0,2.74-0.06,4.75-0.06,5.5" stroke-dasharray="38.2939" stroke-dashoffset="38.2939"><animate attributeName="opacity" values="0;0;1;1" keyTimes="0;0.2227;0.2227;1" dur="10.3384s" begin="0s;aid07d76.click" fill="freeze" repeatCount="indefinite"/><animate attributeName="stroke-dashoffset" values="38.2939;38.2939;0;0" keyTimes="0;0.2227;0.2703;1" dur="10.3384s" begin="0s;aid07d76.click" fill="freeze" repeatCount="indefinite"/></path>
		<path d="M20.75,69c0.12,0.76,0.09,2-0.12,2.55c-1.88,4.95-4.5,9.95-7.13,13.95" stroke-dasharray="18.2779" stroke-dashoffset="18.2779"><animate attributeName="opacity" values="0;0;1;1" keyTimes="0;0.2896;0.2896;1" dur="10.3384s" begin="0s;aid07d76.click" fill="freeze" repeatCount="indefinite"/><animate attributeName="stroke-dashoffset" values="18.2779;18.2779;0;0" keyTimes="0;0.2896;0.3275;1" dur="10.3384s" begin="0s;aid07d76.click" fill="freeze" repeatCount="indefinite"/></path>
		<path d="M39.75,67.5c2.75,3.6,4.86,11.98,5.5,15.25" stroke-dasharray="16.3219" stroke-dashoffset="16.3219"><animate attributeName="opacity" values="0;0;1;1" keyTimes="0;0.3468;0.3468;1" dur="10.3384s" begin="0s;aid07d76.click" fill="freeze" repeatCount="indefinite"/><animate attributeName="stroke-dashoffset" values="16.3219;16.3219;0;0" keyTimes="0;0.3468;0.3837;1" dur="10.3384s" begin="0s;aid07d76.click" fill="freeze" repeatCount="indefinite"/></path>
	</g>
	<g kvg:element="色">
		<g kvg:element="𠂊">
			<path d="M64.65,13.75c0.12,1.52-0.03,2.65-0.63,4.06c-2.87,6.78-10.86,18.2-16.79,24.07" stroke-dasharray="33.6414" stroke-dashoffset="33.6414"><animate attributeName="opacity" values="0;0;1;1" keyTimes="0;0.4031;0.4031;1" dur="10.3384s" begin="0s;aid07d76.click" fill="freeze" repeatCount="indefinite"/><animate attributeName="stroke-dashoffset" values="33.6414;33.6414;0;0" keyTimes="0;0.4031;0.4484;1" dur="10.3384s" begin="0s;aid07d76.click" fill="freeze" repeatCount="indefinite"/></path>
			<path d="M63.32,23.57c5.68-0.32,14.77-1.7,17.24-1.99c2.12-0.25,2.38,1.62,1.5,2.84c-3.72,5.14-8.18,11.08-13.21,18.28" stroke-dasharray="44.2499" stroke-dashoffset="44.2499"><animate attributeName="opacity" values="0;0;1;1" keyTimes="0;0.4677;0.4677;1" dur="10.3384s" begin="0s;aid07d76.click" fill="freeze" repeatCount="indefinite"/><animate attributeName="stroke-dashoffset" values="44.2499;44.2499;0;0" keyTimes="0;0.4677;0.5181;1" dur="10.3384s" begin="0s;aid07d76.click" fill="freeze" repeatCount="indefinite"/></path>
		</g>
		<g kvg:element="巴">
			<g kvg:element="己">
				<path d="M51.6,45.34c1.15,0.41,2.73,0.26,3.9,0.17c11-0.88,23.37-2.38,31.13-3.52c2.42-0.35,3.09,1.81,2.86,3c-0.57,3.06-1.13,8.47-1.97,13.32c-0.26,1.49-0.54,2.93-0.86,4.23" stroke-dasharray="57.9777" stroke-dashoffset="57.9777"><animate attributeName="opacity" values="0;0;1;1" keyTimes="0;0.5375;0.5375;1" dur="10.3384s" begin="0s;aid07d76.click" fill="freeze" repeatCount="indefinite"/><animate attributeName="stroke-dashoffset" values="57.9777;57.9777;0;0" keyTimes="0;0.5375;0.5945;1" dur="10.3384s" begin="0s;aid07d76.click" fill="freeze" repeatCount="indefinite"/></path>
				<path d="M69.34,44.99c0.83,0.83,1.32,2.01,1.32,3.36c0,4.52-0.05,8.15-0.05,13.12" stroke-dasharray="16.8355" stroke-dashoffset="16.8355"><animate attributeName="opacity" values="0;0;1;1" keyTimes="0;0.6139;0.6139;1" dur="10.3384s" begin="0s;aid07d76.click" fill="freeze" repeatCount="indefinite"/><animate attributeName="stroke-dashoffset" values="16.8355;16.8355;0;0" keyTimes="0;0.6139;0.6510;1" dur="10.3384s" begin="0s;aid07d76.click" fill="freeze" repeatCount="indefinite"/></path>
				<path d="M55.1,63.83c3.64-0.34,24.78-2.7,30.34-2.86" stroke-dasharray="30.4877" stroke-dashoffset="30.4877"><animate attributeName="opacity" values="0;0;1;1" keyTimes="0;0.6704;0.6704;1" dur="10.3384s" begin="0s;aid07d76.click" fill="freeze" repeatCount="indefinite"/><animate attributeName="stroke-dashoffset" values="30.4877;30.4877;0;0" keyTimes="0;0.6704;0.7141;1" dur="10.3384s" begin="0s;aid07d76.click" fill="freeze" repeatCount="indefinite"/></path>
				<path d="M52.85,46.09c0.9,0.9,1.32,2.21,1.32,3.6c0,14.31,0.08,23.81,0.08,29.06c0,13.5,2,14.87,21.07,14.87c20.31,0,20.95-2.24,20.95-9.16" stroke-dasharray="91.0664" stroke-dashoffset="91.0664"><animate attributeName="opacity" values="0;0;1;1" keyTimes="0;0.7335;0.7335;1" dur="10.3384s" begin="0s;aid07d76.click" fill="freeze" repeatCount="indefinite"/><animate attributeName="stroke-dashoffset" values="91.0664;91.0664;0;0" keyTimes="0;0.7335;0.8065;1" dur="10.3384s" begin="0s;aid07d76.click" fill="freeze" repeatCount="indefinite"/></path>
			</g>
		</g>
	</g>
</g>
</g><g font-size="8" fill="#808080">
	<text transform="matrix(1 0 0 1 23.25 12.13)">1<animate attributeName="opacity" values="0.2;0.2;1.0;1.0" keyTimes="0;0.0000;0.0000;1" dur="10.3384s" begin="0s;aid07d76.click" fill="freeze" repeatCount="indefinite"/></text>
	<text transform="matrix(1 0 0 1 34.50 23.50)">2<animate attributeName="opacity" values="0.2;0.2;1.0;1.0" keyTimes="0;0.0678;0.0678;1" dur="10.3384s" begin="0s;aid07d76.click" fill="freeze" repeatCount="indefinite"/></text>
	<text transform="matrix(1 0 0 1 30.75 49.48)">3<animate attributeName="opacity" values="0.2;0.2;1.0;1.0" keyTimes="0;0.1483;0.1483;1" dur="10.3384s" begin="0s;aid07d76.click" fill="freeze" repeatCount="indefinite"/></text>
	<text transform="matrix(1 0 0 1 23.25 65.90)">4<animate attributeName="opacity" values="0.2;0.2;1.0;1.0" keyTimes="0;0.2034;0.2034;1" dur="10.3384s" begin="0s;aid07d76.click" fill="freeze" repeatCount="indefinite"/></text>
	<text transform="matrix(1 0 0 1 11.25 73.33)">5<animate attributeName="opacity" values="0.2;0.2;1.0;1.0" keyTimes="0;0.2703;0.2703;1" dur="10.3384s" begin="0s;aid07d76.click" fill="freeze" repeatCount="indefinite"/></text>
	<text transform="matrix(1 0 0 1 36.25 64.25)">6<animate attributeName="opacity" values="0.2;0.2;1.0;1.0" keyTimes="0;0.3275;0.3275;1" dur="10.3384s" begin="0s;aid07d76.click" fill="freeze" repeatCount="indefinite"/></text>
	<text transform="matrix(1 0 0 1 56.25 13.50)">7<animate attributeName="opacity" values="0.2;0.2;1.0;1.0" keyTimes="0;0.3837;0.3837;1" dur="10.3384s" begin="0s;aid07d76.click" fill="freeze" repeatCount="indefinite"/></text>
	<text transform="matrix(1 0 0 1 69.75 19.55)">8<animate attributeName="opacity" values="0.2;0.2;1.0;1.0" keyTimes="0;0.4484;0.4484;1" dur="10.3384s" begin="0s;aid07d76.click" fill="freeze" repeatCount="indefinite"/></text>
	<text transform="matrix(1 0 0 1 56.25 42.50)">9<animate attributeName="opacity" values="0.2;0.2;1.0;1.0" keyTimes="0;0.5181;0.5181;1" dur="10.3384s" begin="0s;aid07d76.click" fill="freeze" repeatCount="indefinite"/></text>
	<text transform="matrix(1 0 0 1 60.50 52.40)">10<animate attributeName="opacity" values="0.2;0.2;1.0;1.0" keyTimes="0;0.5945;0.5945;1" dur="10.3384s" begin="0s;aid07d76.click" fill="freeze" repeatCount="indefinite"/></text>
	<text transform="matrix(1 0 0 1 57.50 60.50)">11<animate attributeName="opacity" values="0.2;0.2;1.0;1.0" keyTimes="0;0.6510;0.6510;1" dur="10.3384s" begin="0s;aid07d76.click" fill="freeze" repeatCount="indefinite"/></text>
	<text transform="matrix(1 0 0 1 44.50 51.50)">12<animate attributeName="opacity" values="0.2;0.2;1.0;1.0" keyTimes="0;0.7141;0.7141;1" dur="10.3384s" begin="0s;aid07d76.click" fill="freeze" repeatCount="indefinite"/></text>
</g>
</svg>