<?xml version="1.0" ?><!--
Copyright (C) 2009/2010/2011 Ulrich Apel.
This work is distributed under the conditions of the Creative Commons
Attribution-Share Alike 3.0 Licence. This means you are free:
* to Share - to copy, distribute and transmit the work
* to Remix - to adapt the work

Under the following conditions:
* Attribution. You must attribute the work by stating your use of KanjiVG in
  your own copyright header and linking to KanjiVG's website
  (http://kanjivg.tagaini.net)
* Share Alike. If you alter, transform, or build upon this work, you may
  distribute the resulting work only under the same or similar license to this
  one.

See http://creativecommons.org/licenses/by-sa/3.0/ for more details.
--><!DOCTYPE svg  PUBLIC '-//W3C//DTD SVG 1.0//EN'  'http://www.w3.org/TR/2001/REC-SVG-20010904/DTD/svg10.dtd' [
<!ATTLIST g
xmlns:kvg CDATA #FIXED "http://kanjivg.tagaini.net"
kvg:element CDATA #IMPLIED
kvg:variant CDATA #IMPLIED
kvg:partial CDATA #IMPLIED
kvg:original CDATA #IMPLIED
kvg:part CDATA #IMPLIED
kvg:number CDATA #IMPLIED
kvg:tradForm CDATA #IMPLIED
kvg:radicalForm CDATA #IMPLIED
kvg:position CDATA #IMPLIED
kvg:radical CDATA #IMPLIED
kvg:phon CDATA #IMPLIED >
<!ATTLIST path
xmlns:kvg CDATA #FIXED "http://kanjivg.tagaini.net"
kvg:type CDATA #IMPLIED >
]><svg xmlns="http://www.w3.org/2000/svg" viewBox="0 0 109 109" id="aid08003">
<g stroke="#8080a0" stroke-width="0.5" opacity="0.7"><line x1="0" y1="0" x2="109" y2="0"/><line x1="109" y1="0" x2="109" y2="109"/><line x1="0" y1="109" x2="109" y2="109"/><line x1="0" y1="0" x2="0" y2="109"/><line x1="0" y1="54.5" x2="109" y2="54.5"/><line x1="54.5" y1="0" x2="54.5" y2="109"/></g><g fill="none" stroke-linecap="round" stroke-linejoin="round" stroke="#808080" opacity="0.5" stroke-width="3">
<g kvg:element="考">
	<g kvg:element="耂" kvg:partial="true">
		<g kvg:element="土">
			<path d="M35,24.52c1.5,0.27,4.25,0.38,5.76,0.27c9.12-0.64,17.37-2.13,24.11-2.52c2.49-0.14,4.01,0.13,5.26,0.26"/>
			<path d="M52.17,10.87c0.98,0.98,1.77,2.38,1.77,3.89c0,6.96,0.13,18.42,0.08,23.5"/>
			<path d="M13.25,42.28c2.79,0.69,7.32,0.7,10.11,0.44c22.93-2.1,39.09-4.6,63.81-5.43c4.63-0.16,7.14,0.08,9.46,0.43"/>
		</g>
		<path d="M81.59,14.23c0.19,1.38-0.08,3.39-1.47,5.03C63,39.62,46.88,55.25,14.62,72.75"/>
	</g>
	<g kvg:element="丂">
		<g kvg:element="丿">
			<path d="M76.26,48.75c-0.26,1.12-0.94,2.24-2.61,3.04C68.75,54.12,62,56.38,54.5,58.5"/>
		</g>
		<path d="M53.25,50.25c0.5,1.25-0.22,3.1-1.73,5.58c-1.77,2.92-4.76,6.83-5.26,7.45c-2.01,2.47-1.51,4.36,1.14,4.25c3.47-0.15,23.72-2.52,29.51-3.24c3.35-0.42,4.84,1.97,3.93,4.6c-2.3,6.72-7.79,21.33-12.08,26.38c-2.52,2.98-5.27,0.73-7.54-2.57"/>
	</g>
</g>
</g>
<g fill="none" stroke-linecap="round" stroke-linejoin="round" stroke="#c04080" stroke-width="2">
<g kvg:element="考">
	<g kvg:element="耂" kvg:partial="true">
		<g kvg:element="土">
			<path d="M35,24.52c1.5,0.27,4.25,0.38,5.76,0.27c9.12-0.64,17.37-2.13,24.11-2.52c2.49-0.14,4.01,0.13,5.26,0.26" stroke-dasharray="35.3067" stroke-dashoffset="35.3067"><animate attributeName="opacity" values="0;0;1;1" keyTimes="0;0.0294;0.0294;1" dur="6.7964s" begin="0s;aid08003.click" fill="freeze" repeatCount="indefinite"/><animate attributeName="stroke-dashoffset" values="35.3067;35.3067;0;0" keyTimes="0;0.0294;0.0995;1" dur="6.7964s" begin="0s;aid08003.click" fill="freeze" repeatCount="indefinite"/></path>
			<path d="M52.17,10.87c0.98,0.98,1.77,2.38,1.77,3.89c0,6.96,0.13,18.42,0.08,23.5" stroke-dasharray="27.8933" stroke-dashoffset="27.8933"><animate attributeName="opacity" values="0;0;1;1" keyTimes="0;0.1290;0.1290;1" dur="6.7964s" begin="0s;aid08003.click" fill="freeze" repeatCount="indefinite"/><animate attributeName="stroke-dashoffset" values="27.8933;27.8933;0;0" keyTimes="0;0.1290;0.1936;1" dur="6.7964s" begin="0s;aid08003.click" fill="freeze" repeatCount="indefinite"/></path>
			<path d="M13.25,42.28c2.79,0.69,7.32,0.7,10.11,0.44c22.93-2.1,39.09-4.6,63.81-5.43c4.63-0.16,7.14,0.08,9.46,0.43" stroke-dasharray="83.7069" stroke-dashoffset="83.7069"><animate attributeName="opacity" values="0;0;1;1" keyTimes="0;0.2231;0.2231;1" dur="6.7964s" begin="0s;aid08003.click" fill="freeze" repeatCount="indefinite"/><animate attributeName="stroke-dashoffset" values="83.7069;83.7069;0;0" keyTimes="0;0.2231;0.3288;1" dur="6.7964s" begin="0s;aid08003.click" fill="freeze" repeatCount="indefinite"/></path>
		</g>
		<path d="M81.59,14.23c0.19,1.38-0.08,3.39-1.47,5.03C63,39.62,46.88,55.25,14.62,72.75" stroke-dasharray="90.5654" stroke-dashoffset="90.5654"><animate attributeName="opacity" values="0;0;1;1" keyTimes="0;0.3582;0.3582;1" dur="6.7964s" begin="0s;aid08003.click" fill="freeze" repeatCount="indefinite"/><animate attributeName="stroke-dashoffset" values="90.5654;90.5654;0;0" keyTimes="0;0.3582;0.4690;1" dur="6.7964s" begin="0s;aid08003.click" fill="freeze" repeatCount="indefinite"/></path>
	</g>
	<g kvg:element="丂">
		<g kvg:element="丿">
			<path d="M76.26,48.75c-0.26,1.12-0.94,2.24-2.61,3.04C68.75,54.12,62,56.38,54.5,58.5" stroke-dasharray="24.4801" stroke-dashoffset="24.4801"><animate attributeName="opacity" values="0;0;1;1" keyTimes="0;0.4984;0.4984;1" dur="6.7964s" begin="0s;aid08003.click" fill="freeze" repeatCount="indefinite"/><animate attributeName="stroke-dashoffset" values="24.4801;24.4801;0;0" keyTimes="0;0.4984;0.5606;1" dur="6.7964s" begin="0s;aid08003.click" fill="freeze" repeatCount="indefinite"/></path>
		</g>
		<path d="M53.25,50.25c0.5,1.25-0.22,3.1-1.73,5.58c-1.77,2.92-4.76,6.83-5.26,7.45c-2.01,2.47-1.51,4.36,1.14,4.25c3.47-0.15,23.72-2.52,29.51-3.24c3.35-0.42,4.84,1.97,3.93,4.6c-2.3,6.72-7.79,21.33-12.08,26.38c-2.52,2.98-5.27,0.73-7.54-2.57" stroke-dasharray="97.3227" stroke-dashoffset="97.3227"><animate attributeName="opacity" values="0;0;1;1" keyTimes="0;0.5900;0.5900;1" dur="6.7964s" begin="0s;aid08003.click" fill="freeze" repeatCount="indefinite"/><animate attributeName="stroke-dashoffset" values="97.3227;97.3227;0;0" keyTimes="0;0.5900;0.7057;1" dur="6.7964s" begin="0s;aid08003.click" fill="freeze" repeatCount="indefinite"/></path>
	</g>
</g>
</g><g font-size="8" fill="#808080">
	<text transform="matrix(1 0 0 1 27.75 25.50)">1<animate attributeName="opacity" values="0.2;0.2;1.0;1.0" keyTimes="0;0.0000;0.0000;1" dur="6.7964s" begin="0s;aid08003.click" fill="freeze" repeatCount="indefinite"/></text>
	<text transform="matrix(1 0 0 1 41.50 11.50)">2<animate attributeName="opacity" values="0.2;0.2;1.0;1.0" keyTimes="0;0.0995;0.0995;1" dur="6.7964s" begin="0s;aid08003.click" fill="freeze" repeatCount="indefinite"/></text>
	<text transform="matrix(1 0 0 1 5.25 43.50)">3<animate attributeName="opacity" values="0.2;0.2;1.0;1.0" keyTimes="0;0.1936;0.1936;1" dur="6.7964s" begin="0s;aid08003.click" fill="freeze" repeatCount="indefinite"/></text>
	<text transform="matrix(1 0 0 1 73.50 12.50)">4<animate attributeName="opacity" values="0.2;0.2;1.0;1.0" keyTimes="0;0.3288;0.3288;1" dur="6.7964s" begin="0s;aid08003.click" fill="freeze" repeatCount="indefinite"/></text>
	<text transform="matrix(1 0 0 1 67.50 47.50)">5<animate attributeName="opacity" values="0.2;0.2;1.0;1.0" keyTimes="0;0.4690;0.4690;1" dur="6.7964s" begin="0s;aid08003.click" fill="freeze" repeatCount="indefinite"/></text>
	<text transform="matrix(1 0 0 1 39.75 64.25)">6<animate attributeName="opacity" values="0.2;0.2;1.0;1.0" keyTimes="0;0.5606;0.5606;1" dur="6.7964s" begin="0s;aid08003.click" fill="freeze" repeatCount="indefinite"/></text>
</g>
</svg>