<?xml version="1.0" ?><!--
Copyright (C) 2009/2010/2011 Ulrich Apel.
This work is distributed under the conditions of the Creative Commons
Attribution-Share Alike 3.0 Licence. This means you are free:
* to Share - to copy, distribute and transmit the work
* to Remix - to adapt the work

Under the following conditions:
* Attribution. You must attribute the work by stating your use of KanjiVG in
  your own copyright header and linking to KanjiVG's website
  (http://kanjivg.tagaini.net)
* Share Alike. If you alter, transform, or build upon this work, you may
  distribute the resulting work only under the same or similar license to this
  one.

See http://creativecommons.org/licenses/by-sa/3.0/ for more details.
--><!DOCTYPE svg  PUBLIC '-//W3C//DTD SVG 1.0//EN'  'http://www.w3.org/TR/2001/REC-SVG-20010904/DTD/svg10.dtd' [
<!ATTLIST g
xmlns:kvg CDATA #FIXED "http://kanjivg.tagaini.net"
kvg:element CDATA #IMPLIED
kvg:variant CDATA #IMPLIED
kvg:partial CDATA #IMPLIED
kvg:original CDATA #IMPLIED
kvg:part CDATA #IMPLIED
kvg:number CDATA #IMPLIED
kvg:tradForm CDATA #IMPLIED
kvg:radicalForm CDATA #IMPLIED
kvg:position CDATA #IMPLIED
kvg:radical CDATA #IMPLIED
kvg:phon CDATA #IMPLIED >
<!ATTLIST path
xmlns:kvg CDATA #FIXED "http://kanjivg.tagaini.net"
kvg:type CDATA #IMPLIED >
]><svg xmlns="http://www.w3.org/2000/svg" viewBox="0 0 109 109" id="aid0805e">
<g stroke="#8080a0" stroke-width="0.5" opacity="0.7"><line x1="0" y1="0" x2="109" y2="0"/><line x1="109" y1="0" x2="109" y2="109"/><line x1="0" y1="109" x2="109" y2="109"/><line x1="0" y1="0" x2="0" y2="109"/><line x1="0" y1="54.5" x2="109" y2="54.5"/><line x1="54.5" y1="0" x2="54.5" y2="109"/></g><g fill="none" stroke-linecap="round" stroke-linejoin="round" stroke="#808080" opacity="0.5" stroke-width="3">
<g kvg:element="聞">
	<g kvg:element="門">
		<g>
			<path d="M16.14,17.97c0.94,0.94,1.51,2.16,1.51,3.25c0,0.77-0.03,48.45-0.18,66.29c-0.03,3.16-0.05,5.37-0.07,6.21"/>
			<path d="M19.01,19.6c6.86-1.22,18.49-3.1,21.08-3.39c1.9-0.21,3.03,0.79,3,2.46c-0.04,1.84-0.59,10.46-1.44,20.02c-0.09,1.04-0.15,2-0.15,2.69"/>
			<path d="M18.81,30.43c6.94-1.05,15.82-2.55,22.41-2.9"/>
			<path d="M17.86,42.57C26.25,41.25,33,40,40.42,39.4"/>
		</g>
		<g>
			<path d="M66.21,14.22c0.66,0.66,1.17,1.78,1.17,2.93c0,0.56,0.12,13.19,0.17,19.1c0.02,1.71,0.03,2.83,0.03,2.91"/>
			<path d="M68.51,16.1c6.89-1.1,19.28-3.26,21.17-3.36c1.96-0.1,3.57,1.38,3.57,2.98c0,18.78-0.26,60.28-0.26,73.89c0,11.13-6.37,2.13-8.21,0.25"/>
			<path d="M68.59,25.94c5.16-0.69,18.16-2.44,23-2.71"/>
			<path d="M69.13,36.75c6.37-0.75,15.12-2,22.15-2.53"/>
		</g>
	</g>
	<g kvg:element="耳">
		<path d="M33.5,51.24c1.71,0.31,4.02,0.25,5.71,0.06c9.6-1.05,20.21-3.05,30.66-4.05c2.83-0.27,4.57-0.1,6,0.05"/>
		<path d="M42.71,53c0.89,0.89,1.3,2.26,1.3,3.51S44,79.31,44,83.84"/>
		<path d="M45.13,61.43c4.49-0.43,13.74-2.05,19.78-2.36"/>
		<path d="M44.81,71.67c5.72-0.67,12.31-1.92,20.12-2.95"/>
		<path d="M32.51,85.14c0.99,0.86,2.2,1.23,3.25,0.92c4.87-1.43,28.2-7.83,34.76-9.39"/>
		<path d="M64.84,49.66c0.62,0.63,1.05,1.71,1.05,2.99c0,0.66,0.12,27.55,0.15,39.1c0.01,1.88,0.01,3.36,0.01,4.25"/>
	</g>
</g>
</g>
<g fill="none" stroke-linecap="round" stroke-linejoin="round" stroke="#c04080" stroke-width="2">
<g kvg:element="聞">
	<g kvg:element="門">
		<g>
			<path d="M16.14,17.97c0.94,0.94,1.51,2.16,1.51,3.25c0,0.77-0.03,48.45-0.18,66.29c-0.03,3.16-0.05,5.37-0.07,6.21" stroke-dasharray="76.1831" stroke-dashoffset="76.1831"><animate attributeName="opacity" values="0;0;1;1" keyTimes="0;0.0170;0.0170;1" dur="11.7817s" begin="0s;aid0805e.click" fill="freeze" repeatCount="indefinite"/><animate attributeName="stroke-dashoffset" values="76.1831;76.1831;0;0" keyTimes="0;0.0170;0.0748;1" dur="11.7817s" begin="0s;aid0805e.click" fill="freeze" repeatCount="indefinite"/></path>
			<path d="M19.01,19.6c6.86-1.22,18.49-3.1,21.08-3.39c1.9-0.21,3.03,0.79,3,2.46c-0.04,1.84-0.59,10.46-1.44,20.02c-0.09,1.04-0.15,2-0.15,2.69" stroke-dasharray="48.6369" stroke-dashoffset="48.6369"><animate attributeName="opacity" values="0;0;1;1" keyTimes="0;0.0917;0.0917;1" dur="11.7817s" begin="0s;aid0805e.click" fill="freeze" repeatCount="indefinite"/><animate attributeName="stroke-dashoffset" values="48.6369;48.6369;0;0" keyTimes="0;0.0917;0.1378;1" dur="11.7817s" begin="0s;aid0805e.click" fill="freeze" repeatCount="indefinite"/></path>
			<path d="M18.81,30.43c6.94-1.05,15.82-2.55,22.41-2.9" stroke-dasharray="22.6155" stroke-dashoffset="22.6155"><animate attributeName="opacity" values="0;0;1;1" keyTimes="0;0.1548;0.1548;1" dur="11.7817s" begin="0s;aid0805e.click" fill="freeze" repeatCount="indefinite"/><animate attributeName="stroke-dashoffset" values="22.6155;22.6155;0;0" keyTimes="0;0.1548;0.1899;1" dur="11.7817s" begin="0s;aid0805e.click" fill="freeze" repeatCount="indefinite"/></path>
			<path d="M17.86,42.57C26.25,41.25,33,40,40.42,39.4" stroke-dasharray="22.7981" stroke-dashoffset="22.7981"><animate attributeName="opacity" values="0;0;1;1" keyTimes="0;0.2069;0.2069;1" dur="11.7817s" begin="0s;aid0805e.click" fill="freeze" repeatCount="indefinite"/><animate attributeName="stroke-dashoffset" values="22.7981;22.7981;0;0" keyTimes="0;0.2069;0.2420;1" dur="11.7817s" begin="0s;aid0805e.click" fill="freeze" repeatCount="indefinite"/></path>
		</g>
		<g>
			<path d="M66.21,14.22c0.66,0.66,1.17,1.78,1.17,2.93c0,0.56,0.12,13.19,0.17,19.1c0.02,1.71,0.03,2.83,0.03,2.91" stroke-dasharray="25.2521" stroke-dashoffset="25.2521"><animate attributeName="opacity" values="0;0;1;1" keyTimes="0;0.2590;0.2590;1" dur="11.7817s" begin="0s;aid0805e.click" fill="freeze" repeatCount="indefinite"/><animate attributeName="stroke-dashoffset" values="25.2521;25.2521;0;0" keyTimes="0;0.2590;0.2952;1" dur="11.7817s" begin="0s;aid0805e.click" fill="freeze" repeatCount="indefinite"/></path>
			<path d="M68.51,16.1c6.89-1.1,19.28-3.26,21.17-3.36c1.96-0.1,3.57,1.38,3.57,2.98c0,18.78-0.26,60.28-0.26,73.89c0,11.13-6.37,2.13-8.21,0.25" stroke-dasharray="115.1001" stroke-dashoffset="115.1001"><animate attributeName="opacity" values="0;0;1;1" keyTimes="0;0.3121;0.3121;1" dur="11.7817s" begin="0s;aid0805e.click" fill="freeze" repeatCount="indefinite"/><animate attributeName="stroke-dashoffset" values="115.1001;115.1001;0;0" keyTimes="0;0.3121;0.3864;1" dur="11.7817s" begin="0s;aid0805e.click" fill="freeze" repeatCount="indefinite"/></path>
			<path d="M68.59,25.94c5.16-0.69,18.16-2.44,23-2.71" stroke-dasharray="23.1725" stroke-dashoffset="23.1725"><animate attributeName="opacity" values="0;0;1;1" keyTimes="0;0.4034;0.4034;1" dur="11.7817s" begin="0s;aid0805e.click" fill="freeze" repeatCount="indefinite"/><animate attributeName="stroke-dashoffset" values="23.1725;23.1725;0;0" keyTimes="0;0.4034;0.4387;1" dur="11.7817s" begin="0s;aid0805e.click" fill="freeze" repeatCount="indefinite"/></path>
			<path d="M69.13,36.75c6.37-0.75,15.12-2,22.15-2.53" stroke-dasharray="22.3061" stroke-dashoffset="22.3061"><animate attributeName="opacity" values="0;0;1;1" keyTimes="0;0.4557;0.4557;1" dur="11.7817s" begin="0s;aid0805e.click" fill="freeze" repeatCount="indefinite"/><animate attributeName="stroke-dashoffset" values="22.3061;22.3061;0;0" keyTimes="0;0.4557;0.4906;1" dur="11.7817s" begin="0s;aid0805e.click" fill="freeze" repeatCount="indefinite"/></path>
		</g>
	</g>
	<g kvg:element="耳">
		<path d="M33.5,51.24c1.71,0.31,4.02,0.25,5.71,0.06c9.6-1.05,20.21-3.05,30.66-4.05c2.83-0.27,4.57-0.1,6,0.05" stroke-dasharray="42.6790" stroke-dashoffset="42.6790"><animate attributeName="opacity" values="0;0;1;1" keyTimes="0;0.5076;0.5076;1" dur="11.7817s" begin="0s;aid0805e.click" fill="freeze" repeatCount="indefinite"/><animate attributeName="stroke-dashoffset" values="42.6790;42.6790;0;0" keyTimes="0;0.5076;0.5512;1" dur="11.7817s" begin="0s;aid0805e.click" fill="freeze" repeatCount="indefinite"/></path>
		<path d="M42.71,53c0.89,0.89,1.3,2.26,1.3,3.51S44,79.31,44,83.84" stroke-dasharray="31.1764" stroke-dashoffset="31.1764"><animate attributeName="opacity" values="0;0;1;1" keyTimes="0;0.5681;0.5681;1" dur="11.7817s" begin="0s;aid0805e.click" fill="freeze" repeatCount="indefinite"/><animate attributeName="stroke-dashoffset" values="31.1764;31.1764;0;0" keyTimes="0;0.5681;0.6068;1" dur="11.7817s" begin="0s;aid0805e.click" fill="freeze" repeatCount="indefinite"/></path>
		<path d="M45.13,61.43c4.49-0.43,13.74-2.05,19.78-2.36" stroke-dasharray="19.9351" stroke-dashoffset="19.9351"><animate attributeName="opacity" values="0;0;1;1" keyTimes="0;0.6238;0.6238;1" dur="11.7817s" begin="0s;aid0805e.click" fill="freeze" repeatCount="indefinite"/><animate attributeName="stroke-dashoffset" values="19.9351;19.9351;0;0" keyTimes="0;0.6238;0.6577;1" dur="11.7817s" begin="0s;aid0805e.click" fill="freeze" repeatCount="indefinite"/></path>
		<path d="M44.81,71.67c5.72-0.67,12.31-1.92,20.12-2.95" stroke-dasharray="20.3461" stroke-dashoffset="20.3461"><animate attributeName="opacity" values="0;0;1;1" keyTimes="0;0.6747;0.6747;1" dur="11.7817s" begin="0s;aid0805e.click" fill="freeze" repeatCount="indefinite"/><animate attributeName="stroke-dashoffset" values="20.3461;20.3461;0;0" keyTimes="0;0.6747;0.7088;1" dur="11.7817s" begin="0s;aid0805e.click" fill="freeze" repeatCount="indefinite"/></path>
		<path d="M32.51,85.14c0.99,0.86,2.2,1.23,3.25,0.92c4.87-1.43,28.2-7.83,34.76-9.39" stroke-dasharray="39.5393" stroke-dashoffset="39.5393"><animate attributeName="opacity" values="0;0;1;1" keyTimes="0;0.7258;0.7258;1" dur="11.7817s" begin="0s;aid0805e.click" fill="freeze" repeatCount="indefinite"/><animate attributeName="stroke-dashoffset" values="39.5393;39.5393;0;0" keyTimes="0;0.7258;0.7680;1" dur="11.7817s" begin="0s;aid0805e.click" fill="freeze" repeatCount="indefinite"/></path>
		<path d="M64.84,49.66c0.62,0.63,1.05,1.71,1.05,2.99c0,0.66,0.12,27.55,0.15,39.1c0.01,1.88,0.01,3.36,0.01,4.25" stroke-dasharray="46.6061" stroke-dashoffset="46.6061"><animate attributeName="opacity" values="0;0;1;1" keyTimes="0;0.7850;0.7850;1" dur="11.7817s" begin="0s;aid0805e.click" fill="freeze" repeatCount="indefinite"/><animate attributeName="stroke-dashoffset" values="46.6061;46.6061;0;0" keyTimes="0;0.7850;0.8302;1" dur="11.7817s" begin="0s;aid0805e.click" fill="freeze" repeatCount="indefinite"/></path>
	</g>
</g>
</g><g font-size="8" fill="#808080">
	<text transform="matrix(1 0 0 1 10.50 26.50)">1<animate attributeName="opacity" values="0.2;0.2;1.0;1.0" keyTimes="0;0.0000;0.0000;1" dur="11.7817s" begin="0s;aid0805e.click" fill="freeze" repeatCount="indefinite"/></text>
	<text transform="matrix(1 0 0 1 19.50 16.50)">2<animate attributeName="opacity" values="0.2;0.2;1.0;1.0" keyTimes="0;0.0748;0.0748;1" dur="11.7817s" begin="0s;aid0805e.click" fill="freeze" repeatCount="indefinite"/></text>
	<text transform="matrix(1 0 0 1 21.50 27.13)">3<animate attributeName="opacity" values="0.2;0.2;1.0;1.0" keyTimes="0;0.1378;0.1378;1" dur="11.7817s" begin="0s;aid0805e.click" fill="freeze" repeatCount="indefinite"/></text>
	<text transform="matrix(1 0 0 1 21.50 39.13)">4<animate attributeName="opacity" values="0.2;0.2;1.0;1.0" keyTimes="0;0.1899;0.1899;1" dur="11.7817s" begin="0s;aid0805e.click" fill="freeze" repeatCount="indefinite"/></text>
	<text transform="matrix(1 0 0 1 59.50 21.50)">5<animate attributeName="opacity" values="0.2;0.2;1.0;1.0" keyTimes="0;0.2420;0.2420;1" dur="11.7817s" begin="0s;aid0805e.click" fill="freeze" repeatCount="indefinite"/></text>
	<text transform="matrix(1 0 0 1 69.50 12.50)">6<animate attributeName="opacity" values="0.2;0.2;1.0;1.0" keyTimes="0;0.2952;0.2952;1" dur="11.7817s" begin="0s;aid0805e.click" fill="freeze" repeatCount="indefinite"/></text>
	<text transform="matrix(1 0 0 1 71.50 23.50)">7<animate attributeName="opacity" values="0.2;0.2;1.0;1.0" keyTimes="0;0.3864;0.3864;1" dur="11.7817s" begin="0s;aid0805e.click" fill="freeze" repeatCount="indefinite"/></text>
	<text transform="matrix(1 0 0 1 71.50 34.63)">8<animate attributeName="opacity" values="0.2;0.2;1.0;1.0" keyTimes="0;0.4387;0.4387;1" dur="11.7817s" begin="0s;aid0805e.click" fill="freeze" repeatCount="indefinite"/></text>
	<text transform="matrix(1 0 0 1 26.25 53.50)">9<animate attributeName="opacity" values="0.2;0.2;1.0;1.0" keyTimes="0;0.4906;0.4906;1" dur="11.7817s" begin="0s;aid0805e.click" fill="freeze" repeatCount="indefinite"/></text>
	<text transform="matrix(1 0 0 1 33.50 61.50)">10<animate attributeName="opacity" values="0.2;0.2;1.0;1.0" keyTimes="0;0.5512;0.5512;1" dur="11.7817s" begin="0s;aid0805e.click" fill="freeze" repeatCount="indefinite"/></text>
	<text transform="matrix(1 0 0 1 47.50 58.50)">11<animate attributeName="opacity" values="0.2;0.2;1.0;1.0" keyTimes="0;0.6068;0.6068;1" dur="11.7817s" begin="0s;aid0805e.click" fill="freeze" repeatCount="indefinite"/></text>
	<text transform="matrix(1 0 0 1 47.50 68.50)">12<animate attributeName="opacity" values="0.2;0.2;1.0;1.0" keyTimes="0;0.6577;0.6577;1" dur="11.7817s" begin="0s;aid0805e.click" fill="freeze" repeatCount="indefinite"/></text>
	<text transform="matrix(1 0 0 1 23.50 92.50)">13<animate attributeName="opacity" values="0.2;0.2;1.0;1.0" keyTimes="0;0.7088;0.7088;1" dur="11.7817s" begin="0s;aid0805e.click" fill="freeze" repeatCount="indefinite"/></text>
	<text transform="matrix(1 0 0 1 56.50 55.50)">14<animate attributeName="opacity" values="0.2;0.2;1.0;1.0" keyTimes="0;0.7680;0.7680;1" dur="11.7817s" begin="0s;aid0805e.click" fill="freeze" repeatCount="indefinite"/></text>
</g>
</svg>