<?xml version="1.0" ?><!--
Copyright (C) 2009/2010/2011 Ulrich Apel.
This work is distributed under the conditions of the Creative Commons
Attribution-Share Alike 3.0 Licence. This means you are free:
* to Share - to copy, distribute and transmit the work
* to Remix - to adapt the work

Under the following conditions:
* Attribution. You must attribute the work by stating your use of KanjiVG in
  your own copyright header and linking to KanjiVG's website
  (http://kanjivg.tagaini.net)
* Share Alike. If you alter, transform, or build upon this work, you may
  distribute the resulting work only under the same or similar license to this
  one.

See http://creativecommons.org/licenses/by-sa/3.0/ for more details.
--><!DOCTYPE svg  PUBLIC '-//W3C//DTD SVG 1.0//EN'  'http://www.w3.org/TR/2001/REC-SVG-20010904/DTD/svg10.dtd' [
<!ATTLIST g
xmlns:kvg CDATA #FIXED "http://kanjivg.tagaini.net"
kvg:element CDATA #IMPLIED
kvg:variant CDATA #IMPLIED
kvg:partial CDATA #IMPLIED
kvg:original CDATA #IMPLIED
kvg:part CDATA #IMPLIED
kvg:number CDATA #IMPLIED
kvg:tradForm CDATA #IMPLIED
kvg:radicalForm CDATA #IMPLIED
kvg:position CDATA #IMPLIED
kvg:radical CDATA #IMPLIED
kvg:phon CDATA #IMPLIED >
<!ATTLIST path
xmlns:kvg CDATA #FIXED "http://kanjivg.tagaini.net"
kvg:type CDATA #IMPLIED >
]><svg xmlns="http://www.w3.org/2000/svg" viewBox="0 0 109 109" id="aid0898b">
<g stroke="#8080a0" stroke-width="0.5" opacity="0.7"><line x1="0" y1="0" x2="109" y2="0"/><line x1="109" y1="0" x2="109" y2="109"/><line x1="0" y1="109" x2="109" y2="109"/><line x1="0" y1="0" x2="0" y2="109"/><line x1="0" y1="54.5" x2="109" y2="54.5"/><line x1="54.5" y1="0" x2="54.5" y2="109"/></g><g fill="none" stroke-linecap="round" stroke-linejoin="round" stroke="#808080" opacity="0.5" stroke-width="3">
<g kvg:element="見">
	<g kvg:element="目">
		<path d="M32.5,15.46c0.96,0.96,1.18,2.1,1.18,3.52c0,1.12,0.07,27.43-0.02,39.27c-0.02,3.12-0.02,5.21,0.02,5.5"/>
		<path d="M34.65,17.15c9.23-1.27,22.23-2.65,31.1-3.65c2.99-0.34,4.26,1.01,4.26,3.55c0,2.5-0.1,28.08-0.14,38.96c-0.01,2.91-0.02,4.75-0.02,4.79"/>
		<path d="M34.84,31.1c7.28-0.6,25.03-2.98,33.9-3.38"/>
		<path d="M34.86,44.63C43.38,44,59,42.12,68.6,41.51"/>
		<path d="M34.71,59.66C44.5,59,58.38,57.5,68.45,57.03"/>
	</g>
	<g>
		<path d="M41.99,66.75c0.26,1.5,0.01,2.99-0.41,4.04c-2.7,6.83-13.83,20.83-28.41,27.87"/>
		<path d="M54.49,61.37c1.07,1.07,1.33,2.59,1.38,4.43c0.2,8.19,0.04,6.2,0.04,18.2c0,10.12,1.23,11.53,18.54,11.53c18.81,0,19.81-1.53,19.81-10.12"/>
	</g>
</g>
</g>
<g fill="none" stroke-linecap="round" stroke-linejoin="round" stroke="#c04080" stroke-width="2">
<g kvg:element="見">
	<g kvg:element="目">
		<path d="M32.5,15.46c0.96,0.96,1.18,2.1,1.18,3.52c0,1.12,0.07,27.43-0.02,39.27c-0.02,3.12-0.02,5.21,0.02,5.5" stroke-dasharray="48.6038" stroke-dashoffset="48.6038"><animate attributeName="opacity" values="0;0;1;1" keyTimes="0;0.0275;0.0275;1" dur="7.2626s" begin="0s;aid0898b.click" fill="freeze" repeatCount="indefinite"/><animate attributeName="stroke-dashoffset" values="48.6038;48.6038;0;0" keyTimes="0;0.0275;0.1023;1" dur="7.2626s" begin="0s;aid0898b.click" fill="freeze" repeatCount="indefinite"/></path>
		<path d="M34.65,17.15c9.23-1.27,22.23-2.65,31.1-3.65c2.99-0.34,4.26,1.01,4.26,3.55c0,2.5-0.1,28.08-0.14,38.96c-0.01,2.91-0.02,4.75-0.02,4.79" stroke-dasharray="81.6202" stroke-dashoffset="81.6202"><animate attributeName="opacity" values="0;0;1;1" keyTimes="0;0.1298;0.1298;1" dur="7.2626s" begin="0s;aid0898b.click" fill="freeze" repeatCount="indefinite"/><animate attributeName="stroke-dashoffset" values="81.6202;81.6202;0;0" keyTimes="0;0.1298;0.2273;1" dur="7.2626s" begin="0s;aid0898b.click" fill="freeze" repeatCount="indefinite"/></path>
		<path d="M34.84,31.1c7.28-0.6,25.03-2.98,33.9-3.38" stroke-dasharray="34.0822" stroke-dashoffset="34.0822"><animate attributeName="opacity" values="0;0;1;1" keyTimes="0;0.2549;0.2549;1" dur="7.2626s" begin="0s;aid0898b.click" fill="freeze" repeatCount="indefinite"/><animate attributeName="stroke-dashoffset" values="34.0822;34.0822;0;0" keyTimes="0;0.2549;0.3197;1" dur="7.2626s" begin="0s;aid0898b.click" fill="freeze" repeatCount="indefinite"/></path>
		<path d="M34.86,44.63C43.38,44,59,42.12,68.6,41.51" stroke-dasharray="33.8954" stroke-dashoffset="33.8954"><animate attributeName="opacity" values="0;0;1;1" keyTimes="0;0.3472;0.3472;1" dur="7.2626s" begin="0s;aid0898b.click" fill="freeze" repeatCount="indefinite"/><animate attributeName="stroke-dashoffset" values="33.8954;33.8954;0;0" keyTimes="0;0.3472;0.4118;1" dur="7.2626s" begin="0s;aid0898b.click" fill="freeze" repeatCount="indefinite"/></path>
		<path d="M34.71,59.66C44.5,59,58.38,57.5,68.45,57.03" stroke-dasharray="33.8541" stroke-dashoffset="33.8541"><animate attributeName="opacity" values="0;0;1;1" keyTimes="0;0.4394;0.4394;1" dur="7.2626s" begin="0s;aid0898b.click" fill="freeze" repeatCount="indefinite"/><animate attributeName="stroke-dashoffset" values="33.8541;33.8541;0;0" keyTimes="0;0.4394;0.5040;1" dur="7.2626s" begin="0s;aid0898b.click" fill="freeze" repeatCount="indefinite"/></path>
	</g>
	<g>
		<path d="M41.99,66.75c0.26,1.5,0.01,2.99-0.41,4.04c-2.7,6.83-13.83,20.83-28.41,27.87" stroke-dasharray="44.6092" stroke-dashoffset="44.6092"><animate attributeName="opacity" values="0;0;1;1" keyTimes="0;0.5315;0.5315;1" dur="7.2626s" begin="0s;aid0898b.click" fill="freeze" repeatCount="indefinite"/><animate attributeName="stroke-dashoffset" values="44.6092;44.6092;0;0" keyTimes="0;0.5315;0.6035;1" dur="7.2626s" begin="0s;aid0898b.click" fill="freeze" repeatCount="indefinite"/></path>
		<path d="M54.49,61.37c1.07,1.07,1.33,2.59,1.38,4.43c0.2,8.19,0.04,6.2,0.04,18.2c0,10.12,1.23,11.53,18.54,11.53c18.81,0,19.81-1.53,19.81-10.12" stroke-dasharray="75.8587" stroke-dashoffset="75.8587"><animate attributeName="opacity" values="0;0;1;1" keyTimes="0;0.6311;0.6311;1" dur="7.2626s" begin="0s;aid0898b.click" fill="freeze" repeatCount="indefinite"/><animate attributeName="stroke-dashoffset" values="75.8587;75.8587;0;0" keyTimes="0;0.6311;0.7246;1" dur="7.2626s" begin="0s;aid0898b.click" fill="freeze" repeatCount="indefinite"/></path>
	</g>
</g>
</g><g font-size="8" fill="#808080">
	<text transform="matrix(1 0 0 1 26.50 23.50)">1<animate attributeName="opacity" values="0.2;0.2;1.0;1.0" keyTimes="0;0.0000;0.0000;1" dur="7.2626s" begin="0s;aid0898b.click" fill="freeze" repeatCount="indefinite"/></text>
	<text transform="matrix(1 0 0 1 35.50 13.50)">2<animate attributeName="opacity" values="0.2;0.2;1.0;1.0" keyTimes="0;0.1023;0.1023;1" dur="7.2626s" begin="0s;aid0898b.click" fill="freeze" repeatCount="indefinite"/></text>
	<text transform="matrix(1 0 0 1 38.25 27.43)">3<animate attributeName="opacity" values="0.2;0.2;1.0;1.0" keyTimes="0;0.2273;0.2273;1" dur="7.2626s" begin="0s;aid0898b.click" fill="freeze" repeatCount="indefinite"/></text>
	<text transform="matrix(1 0 0 1 38.25 40.63)">4<animate attributeName="opacity" values="0.2;0.2;1.0;1.0" keyTimes="0;0.3197;0.3197;1" dur="7.2626s" begin="0s;aid0898b.click" fill="freeze" repeatCount="indefinite"/></text>
	<text transform="matrix(1 0 0 1 38.25 55.63)">5<animate attributeName="opacity" values="0.2;0.2;1.0;1.0" keyTimes="0;0.4118;0.4118;1" dur="7.2626s" begin="0s;aid0898b.click" fill="freeze" repeatCount="indefinite"/></text>
	<text transform="matrix(1 0 0 1 32.50 74.50)">6<animate attributeName="opacity" values="0.2;0.2;1.0;1.0" keyTimes="0;0.5040;0.5040;1" dur="7.2626s" begin="0s;aid0898b.click" fill="freeze" repeatCount="indefinite"/></text>
	<text transform="matrix(1 0 0 1 48.50 69.50)">7<animate attributeName="opacity" values="0.2;0.2;1.0;1.0" keyTimes="0;0.6035;0.6035;1" dur="7.2626s" begin="0s;aid0898b.click" fill="freeze" repeatCount="indefinite"/></text>
</g>
</svg>