<?xml version="1.0" ?><!--
Copyright (C) 2009/2010/2011 Ulrich Apel.
This work is distributed under the conditions of the Creative Commons
Attribution-Share Alike 3.0 Licence. This means you are free:
* to Share - to copy, distribute and transmit the work
* to Remix - to adapt the work

Under the following conditions:
* Attribution. You must attribute the work by stating your use of KanjiVG in
  your own copyright header and linking to KanjiVG's website
  (http://kanjivg.tagaini.net)
* Share Alike. If you alter, transform, or build upon this work, you may
  distribute the resulting work only under the same or similar license to this
  one.

See http://creativecommons.org/licenses/by-sa/3.0/ for more details.
--><!DOCTYPE svg  PUBLIC '-//W3C//DTD SVG 1.0//EN'  'http://www.w3.org/TR/2001/REC-SVG-20010904/DTD/svg10.dtd' [
<!ATTLIST g
xmlns:kvg CDATA #FIXED "http://kanjivg.tagaini.net"
kvg:element CDATA #IMPLIED
kvg:variant CDATA #IMPLIED
kvg:partial CDATA #IMPLIED
kvg:original CDATA #IMPLIED
kvg:part CDATA #IMPLIED
kvg:number CDATA #IMPLIED
kvg:tradForm CDATA #IMPLIED
kvg:radicalForm CDATA #IMPLIED
kvg:position CDATA #IMPLIED
kvg:radical CDATA #IMPLIED
kvg:phon CDATA #IMPLIED >
<!ATTLIST path
xmlns:kvg CDATA #FIXED "http://kanjivg.tagaini.net"
kvg:type CDATA #IMPLIED >
]><svg xmlns="http://www.w3.org/2000/svg" viewBox="0 0 109 109" id="aid09854">
<g stroke="#8080a0" stroke-width="0.5" opacity="0.7"><line x1="0" y1="0" x2="109" y2="0"/><line x1="109" y1="0" x2="109" y2="109"/><line x1="0" y1="109" x2="109" y2="109"/><line x1="0" y1="0" x2="0" y2="109"/><line x1="0" y1="54.5" x2="109" y2="54.5"/><line x1="54.5" y1="0" x2="54.5" y2="109"/></g><g fill="none" stroke-linecap="round" stroke-linejoin="round" stroke="#808080" opacity="0.5" stroke-width="3">
<g kvg:element="顔">
	<g kvg:element="彦">
		<g kvg:element="立">
			<path d="M34.25,13.47c0.58,0.58,1.21,1.78,1.21,3.03c0,1.25,0,3.96,0,7.34"/>
			<path d="M19.08,25.79c1.15,0.29,2.48,0.43,3.63,0.29c7.04-0.83,18.17-2.58,23.81-3.13c1.9-0.19,3.06,0.14,4.01,0.29"/>
			<path d="M25.43,29.98C28.22,34.75,29.75,39.85,30,43"/>
			<path d="M45.02,26.88c0.35,0.88,0.4,2,0.06,3.08c-1.33,4.29-3.64,8.72-5.46,11.67"/>
			<g kvg:element="厂" kvg:part="1">
				<path d="M17.9,46.27c0.85,0.23,4.62,0.32,5.46,0.23c10.28-1,13.4-1.75,25.42-2.98c1.39-0.14,3.64,0.11,4.35,0.23"/>
			</g>
		</g>
		<g kvg:element="厂" kvg:part="2">
			<path d="M20,47c0.56,0.56,0.83,1.88,0.83,3.59c0,17.91-4.22,36.21-10.08,41.91"/>
		</g>
		<g kvg:element="彡">
			<path d="M44.38,51.38c0.11,0.81-0.11,1.77-0.66,2.38c-1.97,2.73-7.7,7.31-15.21,10.25"/>
			<path d="M46.32,63.76c-0.07,0.86-0.17,1.86-0.88,2.58c-2.35,3.1-8.8,8.15-17.21,11.41"/>
			<path d="M48.75,76.12c0,1.09-0.28,2.24-1.09,3.04C43.75,83,35.62,88.88,25.75,93.25"/>
		</g>
	</g>
	<g kvg:element="頁">
		<path d="M57.88,20.23c1.28,0.31,3.62,0.44,4.89,0.31c8.85-0.86,18.73-2.4,26.14-2.9c2.12-0.14,3.4,0.15,4.47,0.31"/>
		<path d="M74.37,21.62c0.13,0.75-0.07,2.09-0.41,2.86c-0.92,2.36-2.62,5.14-4.8,7.71"/>
		<g kvg:element="貝">
			<g kvg:element="目">
				<path d="M61.78,33.8c0.41,0.99,1.02,1.72,1.02,3.04c0,1.13,0,25.27,0,34.92c0,1.56,0,2.74,0,3.38"/>
				<path d="M63.54,35.19c6.07-0.85,20.97-2.96,22.66-3.11c1.78-0.16,3.28,0.92,3.28,3.04c0,1.44-0.17,19.7-0.19,33.88c0,1.16,0,2.29,0,3.38"/>
				<path d="M64.2,46.59c6.3-0.84,19.08-2.22,24.1-2.58"/>
				<path d="M64.14,58.44c8.11-1.19,17.37-1.67,23.77-2.13"/>
				<path d="M64.24,72c6.01-0.62,16.7-1.79,23.52-2.29"/>
			</g>
			<path d="M68.87,78c0.25,1.5-0.15,2.55-0.91,3.6c-2.59,3.52-9.55,8.96-13.46,11.9"/>
			<path d="M82.5,78.25c4.28,4.02,9.35,11.31,10.52,14.83"/>
		</g>
	</g>
</g>
</g>
<g fill="none" stroke-linecap="round" stroke-linejoin="round" stroke="#c04080" stroke-width="2">
<g kvg:element="顔">
	<g kvg:element="彦">
		<g kvg:element="立">
			<path d="M34.25,13.47c0.58,0.58,1.21,1.78,1.21,3.03c0,1.25,0,3.96,0,7.34" stroke-dasharray="10.6869" stroke-dashoffset="10.6869"><animate attributeName="opacity" values="0;0;1;1" keyTimes="0;0.0148;0.0148;1" dur="13.4810s" begin="0s;aid09854.click" fill="freeze" repeatCount="indefinite"/><animate attributeName="stroke-dashoffset" values="10.6869;10.6869;0;0" keyTimes="0;0.0148;0.0411;1" dur="13.4810s" begin="0s;aid09854.click" fill="freeze" repeatCount="indefinite"/></path>
			<path d="M19.08,25.79c1.15,0.29,2.48,0.43,3.63,0.29c7.04-0.83,18.17-2.58,23.81-3.13c1.9-0.19,3.06,0.14,4.01,0.29" stroke-dasharray="31.7243" stroke-dashoffset="31.7243"><animate attributeName="opacity" values="0;0;1;1" keyTimes="0;0.0559;0.0559;1" dur="13.4810s" begin="0s;aid09854.click" fill="freeze" repeatCount="indefinite"/><animate attributeName="stroke-dashoffset" values="31.7243;31.7243;0;0" keyTimes="0;0.0559;0.0899;1" dur="13.4810s" begin="0s;aid09854.click" fill="freeze" repeatCount="indefinite"/></path>
			<path d="M25.43,29.98C28.22,34.75,29.75,39.85,30,43" stroke-dasharray="13.9077" stroke-dashoffset="13.9077"><animate attributeName="opacity" values="0;0;1;1" keyTimes="0;0.1047;0.1047;1" dur="13.4810s" begin="0s;aid09854.click" fill="freeze" repeatCount="indefinite"/><animate attributeName="stroke-dashoffset" values="13.9077;13.9077;0;0" keyTimes="0;0.1047;0.1322;1" dur="13.4810s" begin="0s;aid09854.click" fill="freeze" repeatCount="indefinite"/></path>
			<path d="M45.02,26.88c0.35,0.88,0.4,2,0.06,3.08c-1.33,4.29-3.64,8.72-5.46,11.67" stroke-dasharray="16.0647" stroke-dashoffset="16.0647"><animate attributeName="opacity" values="0;0;1;1" keyTimes="0;0.1470;0.1470;1" dur="13.4810s" begin="0s;aid09854.click" fill="freeze" repeatCount="indefinite"/><animate attributeName="stroke-dashoffset" values="16.0647;16.0647;0;0" keyTimes="0;0.1470;0.1752;1" dur="13.4810s" begin="0s;aid09854.click" fill="freeze" repeatCount="indefinite"/></path>
			<g kvg:element="厂" kvg:part="1">
				<path d="M17.9,46.27c0.85,0.23,4.62,0.32,5.46,0.23c10.28-1,13.4-1.75,25.42-2.98c1.39-0.14,3.64,0.11,4.35,0.23" stroke-dasharray="35.4450" stroke-dashoffset="35.4450"><animate attributeName="opacity" values="0;0;1;1" keyTimes="0;0.1900;0.1900;1" dur="13.4810s" begin="0s;aid09854.click" fill="freeze" repeatCount="indefinite"/><animate attributeName="stroke-dashoffset" values="35.4450;35.4450;0;0" keyTimes="0;0.1900;0.2254;1" dur="13.4810s" begin="0s;aid09854.click" fill="freeze" repeatCount="indefinite"/></path>
			</g>
		</g>
		<g kvg:element="厂" kvg:part="2">
			<path d="M20,47c0.56,0.56,0.83,1.88,0.83,3.59c0,17.91-4.22,36.21-10.08,41.91" stroke-dasharray="47.6163" stroke-dashoffset="47.6163"><animate attributeName="opacity" values="0;0;1;1" keyTimes="0;0.2403;0.2403;1" dur="13.4810s" begin="0s;aid09854.click" fill="freeze" repeatCount="indefinite"/><animate attributeName="stroke-dashoffset" values="47.6163;47.6163;0;0" keyTimes="0;0.2403;0.2802;1" dur="13.4810s" begin="0s;aid09854.click" fill="freeze" repeatCount="indefinite"/></path>
		</g>
		<g kvg:element="彡">
			<path d="M44.38,51.38c0.11,0.81-0.11,1.77-0.66,2.38c-1.97,2.73-7.7,7.31-15.21,10.25" stroke-dasharray="21.0853" stroke-dashoffset="21.0853"><animate attributeName="opacity" values="0;0;1;1" keyTimes="0;0.2950;0.2950;1" dur="13.4810s" begin="0s;aid09854.click" fill="freeze" repeatCount="indefinite"/><animate attributeName="stroke-dashoffset" values="21.0853;21.0853;0;0" keyTimes="0;0.2950;0.3251;1" dur="13.4810s" begin="0s;aid09854.click" fill="freeze" repeatCount="indefinite"/></path>
			<path d="M46.32,63.76c-0.07,0.86-0.17,1.86-0.88,2.58c-2.35,3.1-8.8,8.15-17.21,11.41" stroke-dasharray="23.6502" stroke-dashoffset="23.6502"><animate attributeName="opacity" values="0;0;1;1" keyTimes="0;0.3399;0.3399;1" dur="13.4810s" begin="0s;aid09854.click" fill="freeze" repeatCount="indefinite"/><animate attributeName="stroke-dashoffset" values="23.6502;23.6502;0;0" keyTimes="0;0.3399;0.3710;1" dur="13.4810s" begin="0s;aid09854.click" fill="freeze" repeatCount="indefinite"/></path>
			<path d="M48.75,76.12c0,1.09-0.28,2.24-1.09,3.04C43.75,83,35.62,88.88,25.75,93.25" stroke-dasharray="29.4935" stroke-dashoffset="29.4935"><animate attributeName="opacity" values="0;0;1;1" keyTimes="0;0.3858;0.3858;1" dur="13.4810s" begin="0s;aid09854.click" fill="freeze" repeatCount="indefinite"/><animate attributeName="stroke-dashoffset" values="29.4935;29.4935;0;0" keyTimes="0;0.3858;0.4190;1" dur="13.4810s" begin="0s;aid09854.click" fill="freeze" repeatCount="indefinite"/></path>
		</g>
	</g>
	<g kvg:element="頁">
		<path d="M57.88,20.23c1.28,0.31,3.62,0.44,4.89,0.31c8.85-0.86,18.73-2.4,26.14-2.9c2.12-0.14,3.4,0.15,4.47,0.31" stroke-dasharray="35.7220" stroke-dashoffset="35.7220"><animate attributeName="opacity" values="0;0;1;1" keyTimes="0;0.4338;0.4338;1" dur="13.4810s" begin="0s;aid09854.click" fill="freeze" repeatCount="indefinite"/><animate attributeName="stroke-dashoffset" values="35.7220;35.7220;0;0" keyTimes="0;0.4338;0.4693;1" dur="13.4810s" begin="0s;aid09854.click" fill="freeze" repeatCount="indefinite"/></path>
		<path d="M74.37,21.62c0.13,0.75-0.07,2.09-0.41,2.86c-0.92,2.36-2.62,5.14-4.8,7.71" stroke-dasharray="12.0502" stroke-dashoffset="12.0502"><animate attributeName="opacity" values="0;0;1;1" keyTimes="0;0.4842;0.4842;1" dur="13.4810s" begin="0s;aid09854.click" fill="freeze" repeatCount="indefinite"/><animate attributeName="stroke-dashoffset" values="12.0502;12.0502;0;0" keyTimes="0;0.4842;0.5109;1" dur="13.4810s" begin="0s;aid09854.click" fill="freeze" repeatCount="indefinite"/></path>
		<g kvg:element="貝">
			<g kvg:element="目">
				<path d="M61.78,33.8c0.41,0.99,1.02,1.72,1.02,3.04c0,1.13,0,25.27,0,34.92c0,1.56,0,2.74,0,3.38" stroke-dasharray="41.5509" stroke-dashoffset="41.5509"><animate attributeName="opacity" values="0;0;1;1" keyTimes="0;0.5257;0.5257;1" dur="13.4810s" begin="0s;aid09854.click" fill="freeze" repeatCount="indefinite"/><animate attributeName="stroke-dashoffset" values="41.5509;41.5509;0;0" keyTimes="0;0.5257;0.5634;1" dur="13.4810s" begin="0s;aid09854.click" fill="freeze" repeatCount="indefinite"/></path>
				<path d="M63.54,35.19c6.07-0.85,20.97-2.96,22.66-3.11c1.78-0.16,3.28,0.92,3.28,3.04c0,1.44-0.17,19.7-0.19,33.88c0,1.16,0,2.29,0,3.38" stroke-dasharray="65.2604" stroke-dashoffset="65.2604"><animate attributeName="opacity" values="0;0;1;1" keyTimes="0;0.5782;0.5782;1" dur="13.4810s" begin="0s;aid09854.click" fill="freeze" repeatCount="indefinite"/><animate attributeName="stroke-dashoffset" values="65.2604;65.2604;0;0" keyTimes="0;0.5782;0.6247;1" dur="13.4810s" begin="0s;aid09854.click" fill="freeze" repeatCount="indefinite"/></path>
				<path d="M64.2,46.59c6.3-0.84,19.08-2.22,24.1-2.58" stroke-dasharray="24.2498" stroke-dashoffset="24.2498"><animate attributeName="opacity" values="0;0;1;1" keyTimes="0;0.6395;0.6395;1" dur="13.4810s" begin="0s;aid09854.click" fill="freeze" repeatCount="indefinite"/><animate attributeName="stroke-dashoffset" values="24.2498;24.2498;0;0" keyTimes="0;0.6395;0.6708;1" dur="13.4810s" begin="0s;aid09854.click" fill="freeze" repeatCount="indefinite"/></path>
				<path d="M64.14,58.44c8.11-1.19,17.37-1.67,23.77-2.13" stroke-dasharray="23.8815" stroke-dashoffset="23.8815"><animate attributeName="opacity" values="0;0;1;1" keyTimes="0;0.6856;0.6856;1" dur="13.4810s" begin="0s;aid09854.click" fill="freeze" repeatCount="indefinite"/><animate attributeName="stroke-dashoffset" values="23.8815;23.8815;0;0" keyTimes="0;0.6856;0.7167;1" dur="13.4810s" begin="0s;aid09854.click" fill="freeze" repeatCount="indefinite"/></path>
				<path d="M64.24,72c6.01-0.62,16.7-1.79,23.52-2.29" stroke-dasharray="23.6420" stroke-dashoffset="23.6420"><animate attributeName="opacity" values="0;0;1;1" keyTimes="0;0.7315;0.7315;1" dur="13.4810s" begin="0s;aid09854.click" fill="freeze" repeatCount="indefinite"/><animate attributeName="stroke-dashoffset" values="23.6420;23.6420;0;0" keyTimes="0;0.7315;0.7626;1" dur="13.4810s" begin="0s;aid09854.click" fill="freeze" repeatCount="indefinite"/></path>
			</g>
			<path d="M68.87,78c0.25,1.5-0.15,2.55-0.91,3.6c-2.59,3.52-9.55,8.96-13.46,11.9" stroke-dasharray="21.8491" stroke-dashoffset="21.8491"><animate attributeName="opacity" values="0;0;1;1" keyTimes="0;0.7774;0.7774;1" dur="13.4810s" begin="0s;aid09854.click" fill="freeze" repeatCount="indefinite"/><animate attributeName="stroke-dashoffset" values="21.8491;21.8491;0;0" keyTimes="0;0.7774;0.8078;1" dur="13.4810s" begin="0s;aid09854.click" fill="freeze" repeatCount="indefinite"/></path>
			<path d="M82.5,78.25c4.28,4.02,9.35,11.31,10.52,14.83" stroke-dasharray="18.3101" stroke-dashoffset="18.3101"><animate attributeName="opacity" values="0;0;1;1" keyTimes="0;0.8226;0.8226;1" dur="13.4810s" begin="0s;aid09854.click" fill="freeze" repeatCount="indefinite"/><animate attributeName="stroke-dashoffset" values="18.3101;18.3101;0;0" keyTimes="0;0.8226;0.8516;1" dur="13.4810s" begin="0s;aid09854.click" fill="freeze" repeatCount="indefinite"/></path>
		</g>
	</g>
</g>
</g><g font-size="8" fill="#808080">
	<text transform="matrix(1 0 0 1 25.50 14.50)">1<animate attributeName="opacity" values="0.2;0.2;1.0;1.0" keyTimes="0;0.0000;0.0000;1" dur="13.4810s" begin="0s;aid09854.click" fill="freeze" repeatCount="indefinite"/></text>
	<text transform="matrix(1 0 0 1 11.25 26.50)">2<animate attributeName="opacity" values="0.2;0.2;1.0;1.0" keyTimes="0;0.0411;0.0411;1" dur="13.4810s" begin="0s;aid09854.click" fill="freeze" repeatCount="indefinite"/></text>
	<text transform="matrix(1 0 0 1 19.50 36.13)">3<animate attributeName="opacity" values="0.2;0.2;1.0;1.0" keyTimes="0;0.0899;0.0899;1" dur="13.4810s" begin="0s;aid09854.click" fill="freeze" repeatCount="indefinite"/></text>
	<text transform="matrix(1 0 0 1 37.50 33.50)">4<animate attributeName="opacity" values="0.2;0.2;1.0;1.0" keyTimes="0;0.1322;0.1322;1" dur="13.4810s" begin="0s;aid09854.click" fill="freeze" repeatCount="indefinite"/></text>
	<text transform="matrix(1 0 0 1 20.25 43.50)">5<animate attributeName="opacity" values="0.2;0.2;1.0;1.0" keyTimes="0;0.1752;0.1752;1" dur="13.4810s" begin="0s;aid09854.click" fill="freeze" repeatCount="indefinite"/></text>
	<text transform="matrix(1 0 0 1 12.50 53.50)">6<animate attributeName="opacity" values="0.2;0.2;1.0;1.0" keyTimes="0;0.2254;0.2254;1" dur="13.4810s" begin="0s;aid09854.click" fill="freeze" repeatCount="indefinite"/></text>
	<text transform="matrix(1 0 0 1 36.50 54.50)">7<animate attributeName="opacity" values="0.2;0.2;1.0;1.0" keyTimes="0;0.2802;0.2802;1" dur="13.4810s" begin="0s;aid09854.click" fill="freeze" repeatCount="indefinite"/></text>
	<text transform="matrix(1 0 0 1 37.50 67.50)">8<animate attributeName="opacity" values="0.2;0.2;1.0;1.0" keyTimes="0;0.3251;0.3251;1" dur="13.4810s" begin="0s;aid09854.click" fill="freeze" repeatCount="indefinite"/></text>
	<text transform="matrix(1 0 0 1 38.50 80.50)">9<animate attributeName="opacity" values="0.2;0.2;1.0;1.0" keyTimes="0;0.3710;0.3710;1" dur="13.4810s" begin="0s;aid09854.click" fill="freeze" repeatCount="indefinite"/></text>
	<text transform="matrix(1 0 0 1 56.50 17.50)">10<animate attributeName="opacity" values="0.2;0.2;1.0;1.0" keyTimes="0;0.4190;0.4190;1" dur="13.4810s" begin="0s;aid09854.click" fill="freeze" repeatCount="indefinite"/></text>
	<text transform="matrix(1 0 0 1 78.50 27.50)">11<animate attributeName="opacity" values="0.2;0.2;1.0;1.0" keyTimes="0;0.4693;0.4693;1" dur="13.4810s" begin="0s;aid09854.click" fill="freeze" repeatCount="indefinite"/></text>
	<text transform="matrix(1 0 0 1 52.50 40.63)">12<animate attributeName="opacity" values="0.2;0.2;1.0;1.0" keyTimes="0;0.5109;0.5109;1" dur="13.4810s" begin="0s;aid09854.click" fill="freeze" repeatCount="indefinite"/></text>
	<text transform="matrix(1 0 0 1 59.50 31.94)">13<animate attributeName="opacity" values="0.2;0.2;1.0;1.0" keyTimes="0;0.5634;0.5634;1" dur="13.4810s" begin="0s;aid09854.click" fill="freeze" repeatCount="indefinite"/></text>
	<text transform="matrix(1 0 0 1 64.32 43.50)">14<animate attributeName="opacity" values="0.2;0.2;1.0;1.0" keyTimes="0;0.6247;0.6247;1" dur="13.4810s" begin="0s;aid09854.click" fill="freeze" repeatCount="indefinite"/></text>
	<text transform="matrix(1 0 0 1 64.50 55.50)">15<animate attributeName="opacity" values="0.2;0.2;1.0;1.0" keyTimes="0;0.6708;0.6708;1" dur="13.4810s" begin="0s;aid09854.click" fill="freeze" repeatCount="indefinite"/></text>
	<text transform="matrix(1 0 0 1 64.36 68.50)">16<animate attributeName="opacity" values="0.2;0.2;1.0;1.0" keyTimes="0;0.7167;0.7167;1" dur="13.4810s" begin="0s;aid09854.click" fill="freeze" repeatCount="indefinite"/></text>
	<text transform="matrix(1 0 0 1 56.25 83.50)">17<animate attributeName="opacity" values="0.2;0.2;1.0;1.0" keyTimes="0;0.7626;0.7626;1" dur="13.4810s" begin="0s;aid09854.click" fill="freeze" repeatCount="indefinite"/></text>
	<text transform="matrix(1 0 0 1 75.50 86.50)">18<animate attributeName="opacity" values="0.2;0.2;1.0;1.0" keyTimes="0;0.8078;0.8078;1" dur="13.4810s" begin="0s;aid09854.click" fill="freeze" repeatCount="indefinite"/></text>
</g>
</svg>